<svg width="81" height="81" viewBox="0 0 81 81" fill="none" xmlns="http://www.w3.org/2000/svg">
<g clip-path="url(#clip0_500_232)">
<ellipse cx="41.2937" cy="41.7232" rx="23.6052" ry="25.0806" fill="#E53935"/>
<path d="M78.6631 45.1599L77.4501 43.5043C76.1387 41.7011 76.1059 39.2586 77.4009 37.4227L78.5812 35.7506C80.3843 33.1934 79.5483 29.6362 76.778 28.1445L74.9748 27.1773C73.0077 26.1282 71.9258 23.9316 72.3028 21.7186L72.6471 19.7023C73.1716 16.6205 70.8603 13.7682 67.7293 13.6371L65.6802 13.5551C63.4508 13.4568 61.5165 11.9487 60.8936 9.80125L60.3199 7.83414C59.4511 4.81792 56.1398 3.26062 53.2547 4.50646L51.3695 5.30969C49.3205 6.19489 46.9272 5.67033 45.4354 3.99829L44.0749 2.47378C41.993 0.146043 38.3375 0.162435 36.272 2.53935L34.9278 4.08025C33.4525 5.76868 31.0756 6.32603 29.0101 5.47362L27.1086 4.68677C24.2071 3.49012 20.9286 5.11298 20.0926 8.12921L19.5516 10.1127C18.9615 12.2765 17.06 13.8174 14.8306 13.9322L12.7815 14.0469C9.65054 14.2272 7.38837 17.1123 7.9621 20.1941L8.33913 22.2104C8.74895 24.407 7.69982 26.62 5.74911 27.7019L3.96233 28.7018C1.22477 30.2263 0.43793 33.7999 2.29029 36.3244L3.50333 37.98C4.81474 39.7832 4.84752 42.2257 3.55251 44.0616L2.37225 45.7337C0.569071 48.2909 1.40509 51.8481 4.17543 53.3398L5.97861 54.307C7.94571 55.3561 9.02762 57.5527 8.65059 59.7657L8.30635 61.782C7.78179 64.8638 10.0931 67.7161 13.2241 67.8472L15.2732 67.9292C17.5026 68.0275 19.4369 69.5356 20.0598 71.6831L20.6335 73.6502C21.5023 76.6664 24.8136 78.2237 27.6987 76.9779L29.5839 76.1746C31.6329 75.2894 34.0262 75.814 35.518 77.486L36.8785 79.0105C38.9768 81.3383 42.6323 81.3219 44.6814 78.945L46.0256 77.4041C47.5009 75.7156 49.8778 75.1583 51.9433 76.0107L53.8448 76.7975C56.7463 77.9942 60.0248 76.3713 60.8608 73.3551L61.4018 71.3716C61.9919 69.2078 63.8934 67.6669 66.1228 67.5521L68.1719 67.4374C71.3029 67.2571 73.565 64.372 72.9913 61.2902L72.6143 59.2739C72.2045 57.0773 73.2536 54.8643 75.2043 53.7824L76.9911 52.7825C79.7286 51.2744 80.5155 47.7008 78.6631 45.1599ZM21.7646 33.9475C21.7646 29.4887 25.371 25.8823 29.8297 25.8823C34.2885 25.8823 37.8949 29.4887 37.8949 33.9475C37.8949 38.4062 34.2885 42.0126 29.8297 42.0126C25.371 42.0126 21.7646 38.3898 21.7646 33.9475ZM31.387 54.7496C30.6986 55.5856 29.4527 55.7003 28.6167 55.0119C27.7807 54.3234 27.6659 53.0775 28.3544 52.2415L49.5172 26.7511C50.2057 25.9151 51.4515 25.8004 52.2875 26.4888C53.1235 27.1773 53.2383 28.4232 52.5498 29.2592L31.387 54.7496ZM51.0909 55.5856C46.6321 55.5856 43.0257 51.9792 43.0257 47.5205C43.0257 43.0617 46.6321 39.4553 51.0909 39.4553C55.5496 39.4553 59.156 43.0617 59.156 47.5205C59.156 51.9792 55.5496 55.5856 51.0909 55.5856Z" fill="#E53935"/>
</g>
<path d="M27.618 49.8574V46.6074H23.874V31.6574H19.48L15.996 34.0494V37.7674L19.48 35.4014H20.13V46.6074H16.022V49.8574H27.618ZM44.0039 40.7574C44.0039 37.5854 43.3539 35.2194 42.0279 33.6594C40.7279 32.0734 39.0119 31.2934 36.8799 31.2934C34.7479 31.2934 33.0319 32.0734 31.7059 33.6594C30.4059 35.2194 29.7559 37.5854 29.7559 40.7574C29.7559 43.9034 30.4059 46.2694 31.7059 47.8554C33.0319 49.4154 34.7479 50.1954 36.8799 50.1954C39.0119 50.1954 40.7279 49.4154 42.0279 47.8554C43.3539 46.2694 44.0039 43.9034 44.0039 40.7574ZM36.8799 46.8674C34.6439 46.8674 33.5259 44.8394 33.5259 40.7574C33.5259 36.6754 34.6439 34.6214 36.8799 34.6214C39.1419 34.6214 40.2599 36.6754 40.2599 40.7574C40.2599 44.8394 39.1419 46.8674 36.8799 46.8674ZM50.5685 31.2934C47.7865 31.2934 46.2785 33.3214 46.2785 36.2074C46.2785 39.1194 47.7865 41.1214 50.5685 41.1214C53.3765 41.1214 54.9105 39.1194 54.9105 36.2074C54.9105 33.3214 53.3765 31.2934 50.5685 31.2934ZM52.4925 36.2074C52.4925 37.8974 51.8425 38.9894 50.5685 38.9894C49.2945 38.9894 48.6705 37.8974 48.6705 36.2074C48.6705 34.5434 49.2945 33.4254 50.5685 33.4254C51.8425 33.4254 52.4925 34.5434 52.4925 36.2074ZM62.8665 40.3674C60.0585 40.3674 58.5245 42.3954 58.5245 45.2814C58.5245 48.1934 60.0585 50.1954 62.8665 50.1954C65.6485 50.1954 67.1825 48.1934 67.1825 45.2814C67.1825 42.3954 65.6485 40.3674 62.8665 40.3674ZM64.7905 45.2814C64.7905 46.9714 64.1405 48.0634 62.8665 48.0634C61.5925 48.0634 60.9425 46.9714 60.9425 45.2814C60.9425 43.6174 61.5925 42.4994 62.8665 42.4994C64.1405 42.4994 64.7905 43.6174 64.7905 45.2814ZM63.5685 31.6574H60.9425L49.9185 49.8574H52.5705L63.5685 31.6574Z" fill="white"/>
<defs>
<clipPath id="clip0_500_232">
<rect width="80" height="80" fill="white" transform="translate(0.476562 0.742188)"/>
</clipPath>
</defs>
</svg>
