<svg width="81" height="81" viewBox="0 0 81 81" fill="none" xmlns="http://www.w3.org/2000/svg">
<g clip-path="url(#clip0_500_188)">
<ellipse cx="40.8953" cy="41.731" rx="23.6052" ry="25.0806" fill="#E53935"/>
<path d="M78.2647 45.1678L77.0516 43.5121C75.7402 41.7089 75.7074 39.2664 77.0025 37.4305L78.1827 35.7584C79.9859 33.2012 79.1499 29.644 76.3795 28.1523L74.5764 27.1851C72.6093 26.136 71.5273 23.9394 71.9044 21.7264L72.2486 19.7101C72.7732 16.6284 70.4618 13.7761 67.3309 13.6449L65.2818 13.5629C63.0524 13.4646 61.1181 11.9565 60.4952 9.80906L59.9214 7.84195C59.0526 4.82573 55.7413 3.26844 52.8563 4.51427L50.9711 5.3175C48.922 6.2027 46.5287 5.67814 45.037 4.0061L43.6764 2.4816C41.5946 0.153855 37.939 0.170248 35.8736 2.54717L34.5294 4.08806C33.0541 5.77649 30.6771 6.33384 28.6117 5.48143L26.7101 4.69459C23.8087 3.49793 20.5302 5.12079 19.6941 8.13702L19.1532 10.1205C18.5631 12.2843 16.6615 13.8252 14.4321 13.94L12.3831 14.0547C9.2521 14.235 6.98993 17.1201 7.56367 20.2019L7.9407 22.2182C8.35051 24.4148 7.30139 26.6278 5.35067 27.7097L3.56389 28.7097C0.826335 30.2342 0.0394928 33.8077 1.89185 36.3322L3.1049 37.9878C4.4163 39.791 4.44909 42.2335 3.15407 44.0695L1.97381 45.7415C0.170633 48.2987 1.00665 51.8559 3.77699 53.3476L5.58017 54.3148C7.54727 55.3639 8.62918 57.5605 8.25215 59.7735L7.90791 61.7898C7.38335 64.8716 9.6947 67.7239 12.8257 67.855L14.8747 67.937C17.1041 68.0353 19.0384 69.5435 19.6614 71.6909L20.2351 73.658C21.1039 76.6742 24.4152 78.2315 27.3003 76.9857L29.1854 76.1824C31.2345 75.2972 33.6278 75.8218 35.1195 77.4938L36.4801 79.0183C38.5783 81.3461 42.2339 81.3297 44.283 78.9528L45.6271 77.4119C47.1025 75.7234 49.4794 75.1661 51.5448 76.0185L53.4464 76.8054C56.3479 78.002 59.6264 76.3791 60.4624 73.3629L61.0033 71.3794C61.5935 69.2156 63.495 67.6747 65.7244 67.56L67.7735 67.4452C70.9044 67.2649 73.1666 64.3798 72.5929 61.298L72.2158 59.2817C71.806 57.0851 72.8551 54.8721 74.8059 53.7902L76.5926 52.7903C79.3302 51.2822 80.117 47.7086 78.2647 45.1678ZM21.3662 33.9553C21.3662 29.4965 24.9725 25.8901 29.4313 25.8901C33.8901 25.8901 37.4964 29.4965 37.4964 33.9553C37.4964 38.414 33.8901 42.0204 29.4313 42.0204C24.9725 42.0204 21.3662 38.3976 21.3662 33.9553ZM30.9886 54.7574C30.3001 55.5934 29.0543 55.7082 28.2183 55.0197C27.3822 54.3312 27.2675 53.0853 27.956 52.2493L49.1187 26.7589C49.8072 25.9229 51.0531 25.8082 51.8891 26.4967C52.7251 27.1851 52.8399 28.431 52.1514 29.267L30.9886 54.7574ZM50.6924 55.5934C46.2337 55.5934 42.6273 51.987 42.6273 47.5283C42.6273 43.0695 46.2337 39.4632 50.6924 39.4632C55.1512 39.4632 58.7576 43.0695 58.7576 47.5283C58.7576 51.987 55.1512 55.5934 50.6924 55.5934Z" fill="#E53935"/>
</g>
<path d="M27.3846 49.8652V46.6152H23.6406V31.6652H19.2466L15.7626 34.0572V37.7752L19.2466 35.4092H19.8966V46.6152H15.7886V49.8652H27.3846ZM41.4565 31.6652H37.1405L29.1845 42.0392V45.9652H37.8425V49.8652H41.4565V45.9652H43.7185V42.7152H41.4565V31.6652ZM32.6945 42.0392L37.2965 35.8772H37.9725V42.7152H32.6945V42.0392ZM50.005 31.3012C47.223 31.3012 45.715 33.3292 45.715 36.2152C45.715 39.1272 47.223 41.1292 50.005 41.1292C52.813 41.1292 54.347 39.1272 54.347 36.2152C54.347 33.3292 52.813 31.3012 50.005 31.3012ZM51.929 36.2152C51.929 37.9052 51.279 38.9972 50.005 38.9972C48.731 38.9972 48.107 37.9052 48.107 36.2152C48.107 34.5512 48.731 33.4332 50.005 33.4332C51.279 33.4332 51.929 34.5512 51.929 36.2152ZM62.303 40.3752C59.495 40.3752 57.961 42.4032 57.961 45.2892C57.961 48.2012 59.495 50.2032 62.303 50.2032C65.085 50.2032 66.619 48.2012 66.619 45.2892C66.619 42.4032 65.085 40.3752 62.303 40.3752ZM64.227 45.2892C64.227 46.9792 63.577 48.0712 62.303 48.0712C61.029 48.0712 60.379 46.9792 60.379 45.2892C60.379 43.6252 61.029 42.5072 62.303 42.5072C63.577 42.5072 64.227 43.6252 64.227 45.2892ZM63.005 31.6652H60.379L49.355 49.8652H52.007L63.005 31.6652Z" fill="white"/>
<defs>
<clipPath id="clip0_500_188">
<rect width="80" height="80" fill="white" transform="translate(0.078125 0.75)"/>
</clipPath>
</defs>
</svg>
