<svg width="40" height="40" viewBox="0 0 40 40" fill="none" xmlns="http://www.w3.org/2000/svg">
<circle cx="20" cy="20" r="19" transform="rotate(180 20 20)" stroke="white" stroke-width="2"/>
<path d="M21.9341 15.749L25.335 18.9914L12.744 18.9914C12.3078 18.9914 11.95 19.3291 11.95 19.7507C11.95 20.1721 12.3078 20.51 12.744 20.51L25.335 20.51L21.9342 23.7524C21.623 24.0491 21.623 24.5311 21.9342 24.8279L21.9342 24.8279C22.0894 24.9757 22.2924 25.0494 22.4948 25.0494C22.6972 25.0494 22.9002 24.9757 23.0554 24.8279L23.0554 24.8279L27.8166 20.2884C28.1278 19.9917 28.1278 19.5096 27.8166 19.2129L23.0553 14.6735C22.7454 14.3781 22.2439 14.3781 21.9341 14.6735C21.6229 14.9702 21.6229 15.4522 21.9341 15.749Z" fill="white" stroke="white" stroke-width="0.1"/>
</svg>
