<svg width="40" height="40" viewBox="0 0 40 40" fill="none" xmlns="http://www.w3.org/2000/svg">
<circle cx="20" cy="20" r="19" stroke="#C4C4C4" stroke-width="2"/>
<path d="M18.0659 24.251L14.665 21.0086L27.256 21.0086C27.6922 21.0086 28.05 20.6709 28.05 20.2493C28.05 19.8279 27.6922 19.49 27.256 19.49L14.665 19.49L18.0658 16.2476C18.377 15.9509 18.377 15.4689 18.0658 15.1721L18.0658 15.1721C17.9106 15.0243 17.7076 14.9506 17.5052 14.9506C17.3028 14.9506 17.0998 15.0243 16.9446 15.1721L16.9446 15.1721L12.1834 19.7116C11.8722 20.0083 11.8722 20.4904 12.1834 20.7871L16.9447 25.3265C17.2546 25.6219 17.7561 25.6219 18.0659 25.3265C18.3771 25.0298 18.3771 24.5478 18.0659 24.251Z" fill="#808080" stroke="#808080" stroke-width="0.1"/>
</svg>
