<svg width="40" height="18" viewBox="0 0 40 18" fill="none" xmlns="http://www.w3.org/2000/svg">
<path d="M39.7683 8.39957L30.8796 0.297588C30.6326 0.097003 30.3627 0.05841 30.0694 0.181891C29.7765 0.305534 29.6294 0.529145 29.6294 0.853373V6.03859H0.740723C0.524571 6.03859 0.347011 6.10791 0.208288 6.2468C0.0696454 6.3856 0 6.56316 0 6.77915V11.2235C0 11.4394 0.0693211 11.617 0.208207 11.7556C0.347254 11.8944 0.524814 11.9637 0.740642 11.9637H29.6296V17.1489C29.6296 17.4579 29.7769 17.6815 30.0696 17.82C30.3631 17.944 30.6331 17.8971 30.8801 17.6815L39.7688 9.48649C39.9231 9.33228 40 9.14742 40 8.93119C40 8.73109 39.9226 8.55386 39.7683 8.39957Z" fill="#FCCA3A"/>
</svg>
