<svg width="60" height="60" viewBox="0 0 60 60" fill="none" xmlns="http://www.w3.org/2000/svg">
<circle cx="30" cy="30" r="30" fill="#1168AC"/>
<path d="M40.7495 27.9601C40.3984 27.6837 37.2975 24.269 35.5416 22.6775C35.5341 22.67 35.5341 22.67 35.5341 22.6625V15.3101C35.5341 13.4869 34.0472 12 32.224 12H21.3822C19.686 12 18.3037 13.3898 18.3037 15.0785V32.3238C18.3037 34.1469 19.7906 35.6339 21.6138 35.6339H24.767H25.5665C25.701 35.6339 25.813 35.5143 25.7981 35.3798L25.6262 33.9153C25.6113 33.7958 25.5142 33.7136 25.3946 33.7136H25.1032H24.9239C24.7969 33.7136 24.6923 33.609 24.6923 33.4819V13.8904C24.6923 13.7634 24.7969 13.6588 24.9239 13.6588H32.2464C32.9861 13.6588 33.5914 14.264 33.5914 15.0037V31.0087V32.5853C33.5914 33.0934 33.2402 33.5268 32.7695 33.6613C32.762 33.6613 32.762 33.6613 32.7545 33.6613C31.955 33.2279 31.0135 31.3748 30.8716 31.0834C30.8566 31.061 30.8492 31.0311 30.8492 31.0087C30.7969 30.538 30.2663 25.9801 27.838 25.9801C27.7707 25.9801 27.7035 25.9801 27.6362 25.9875C27.6362 25.9875 25.6935 26.1519 27.3 31.6887C27.3 31.7036 27.3074 31.7111 27.3074 31.726L28.0173 37.8605C28.0173 37.868 28.0173 37.8755 28.0248 37.8904C28.0845 38.122 28.8915 41.2528 30.9762 43.472C31.0135 43.5168 31.036 43.5691 31.036 43.6289V44.1594C31.036 44.1743 31.0285 44.1818 31.0135 44.1818H30.8267C30.371 44.1818 29.9974 44.5554 29.9974 45.0112V47.1706C29.9974 47.6264 30.371 48 30.8267 48H39.6213C40.0771 48 40.4507 47.6264 40.4507 47.1706V45.0262C40.4507 44.5704 40.0771 44.1968 39.6213 44.1968C39.6063 44.1968 39.5989 44.1893 39.5989 44.1743C39.8903 41.4695 40.9363 32.2192 41.4967 31.4944C41.5117 31.472 41.5266 31.4496 41.5341 31.4197C41.6312 31.0834 42.1169 29.0286 40.7495 27.9601ZM21.7632 33.4969C21.7632 33.6164 21.6661 33.7061 21.554 33.7061C20.8218 33.7061 20.224 33.1083 20.224 32.3761V14.9888C20.224 14.2565 20.8218 13.6588 21.554 13.6588C21.6736 13.6588 21.7632 13.7559 21.7632 13.868V33.4969Z" fill="white"/>
</svg>
