<svg width="100" height="100" viewBox="0 0 100 100" fill="none" xmlns="http://www.w3.org/2000/svg">
<circle cx="50" cy="50" r="50" fill="#FCCA3A"/>
<g clip-path="url(#clip0_500_633)">
<path d="M74.2817 51.2133C70.9706 51.4172 66.6166 54.7278 62.4191 56.6267C57.2739 58.9576 49.2615 57.0836 49.2607 57.0836C50.4934 56.5063 55.517 55.307 56.5295 54.8633C61.9055 52.5001 61.4524 47.5681 58.8912 47.6096C55.5065 47.6634 53.5217 48.497 46.7699 49.4147C41.6533 50.1131 35.6031 49.8589 32.7006 50.967C28.6019 52.5292 22 63.0596 22 63.0596L32.2066 72.9481C32.2066 72.9481 38.5236 66.7264 41.5961 66.7264C48.5993 66.7264 48.8807 66.6331 55.3868 66.2822C58.1511 66.1311 58.73 66.0207 60.3088 65.4845C68.7396 62.6341 77.7903 55.0441 77.9569 54.1334C78.3453 52.0159 76.0334 51.1073 74.2817 51.2133Z" fill="black"/>
<path d="M44.732 42.3658C47.8896 42.3658 50.4611 39.8164 50.4992 36.6683H63.5346V40.4027C63.5346 40.8054 63.8635 41.1341 64.2695 41.1341H66.9456C67.3523 41.1341 67.6804 40.8054 67.6804 40.4027V38.7767H71.2309V40.4027C71.2309 40.8054 71.5595 41.1341 71.9658 41.1341H74.6477C75.0524 41.1341 75.381 40.8054 75.381 40.4027V33.4787C75.381 33.0728 75.0522 32.7442 74.6477 32.7442L50.4992 32.7493C50.4611 29.6017 47.8896 27.0527 44.732 27.0527C41.5452 27.0527 38.958 29.6431 38.958 32.8242V36.5948C38.958 39.7757 41.5452 42.3658 44.732 42.3658ZM42.3383 32.8242C42.3383 31.5046 43.4094 30.4314 44.7318 30.4314C46.049 30.4314 47.1249 31.5046 47.1249 32.8242V36.5948C47.1249 37.9145 46.0488 38.9874 44.7318 38.9874C43.4094 38.9874 42.3383 37.9145 42.3383 36.5948V32.8242Z" fill="black"/>
</g>
<defs>
<clipPath id="clip0_500_633">
<rect width="56" height="56" fill="white" transform="translate(22 22)"/>
</clipPath>
</defs>
</svg>
