<svg width="65" height="71" viewBox="0 0 65 71" fill="none" xmlns="http://www.w3.org/2000/svg">
<path d="M58.332 47.8346V49.0013H54.832C54.5226 49.0013 54.2259 49.1242 54.0071 49.343C53.7883 49.5618 53.6654 49.8585 53.6654 50.168V51.2666C51.5436 49.9536 49.0409 49.3949 46.5622 49.681C44.0836 49.9671 41.7739 51.0811 40.0071 52.843L39.1821 53.668H32.6654C31.8461 53.6677 31.0412 53.8832 30.3317 54.2928C29.6222 54.7023 29.033 55.2915 28.6235 56.001C28.2139 56.7106 27.9984 57.5155 27.9987 58.3347C27.999 59.154 28.215 59.9587 28.625 60.668H13.9987C12.761 60.668 11.574 61.1596 10.6989 62.0348C9.8237 62.91 9.33203 64.097 9.33203 65.3346C9.33203 66.5723 9.8237 67.7593 10.6989 68.6345C11.574 69.5096 12.761 70.0013 13.9987 70.0013H39.419C44.412 70.0063 49.3208 68.7153 53.6654 66.2546V66.5013C53.6654 66.8107 53.7883 67.1075 54.0071 67.3263C54.2259 67.545 54.5226 67.668 54.832 67.668H58.332V68.8346C58.332 69.144 58.4549 69.4408 58.6737 69.6596C58.8925 69.8784 59.1893 70.0013 59.4987 70.0013H62.9987C63.643 70.0013 64.1654 69.479 64.1654 68.8346C64.1654 68.1903 63.643 67.668 62.9987 67.668H60.6654V49.0013H62.9987C63.643 49.0013 64.1654 48.479 64.1654 47.8346C64.1654 47.1903 63.643 46.668 62.9987 46.668H59.4987C59.1893 46.668 58.8925 46.7909 58.6737 47.0097C58.4549 47.2285 58.332 47.5252 58.332 47.8346ZM39.419 67.668H13.9987C13.3799 67.668 12.7864 67.4221 12.3488 66.9845C11.9112 66.547 11.6654 65.9535 11.6654 65.3346C11.6654 64.7158 11.9112 64.1223 12.3488 63.6847C12.7864 63.2471 13.3799 63.0013 13.9987 63.0013H41.9987C42.3081 63.0013 42.6049 62.8784 42.8237 62.6596C43.0424 62.4408 43.1654 62.1441 43.1654 61.8346C43.1654 61.5252 43.0424 61.2285 42.8237 61.0097C42.6049 60.7909 42.3081 60.668 41.9987 60.668H32.6654C32.0465 60.668 31.453 60.4221 31.0154 59.9845C30.5779 59.547 30.332 58.9535 30.332 58.3346C30.332 57.7158 30.5779 57.1223 31.0154 56.6847C31.453 56.2471 32.0465 56.0013 32.6654 56.0013H39.6654C39.9748 56.0013 40.2715 55.8784 40.4903 55.6596L41.657 54.493C43.237 52.9127 45.3629 51.9983 47.5968 51.9382C49.8307 51.8781 52.0026 52.6768 53.6654 54.1698V63.534C49.4063 66.2386 44.4643 67.6727 39.419 67.668ZM55.9987 65.3346V51.3346H58.332V65.3346H55.9987Z" fill="#FCBB00"/>
<path d="M18.6667 30.332H24.5C24.8094 30.332 25.1062 30.2091 25.325 29.9903C25.5437 29.7715 25.6667 29.4748 25.6667 29.1654V24.4987C25.6667 24.1893 25.5437 23.8925 25.325 23.6737C25.1062 23.455 24.8094 23.332 24.5 23.332H18.6667C18.3572 23.332 18.0605 23.455 17.8417 23.6737C17.6229 23.8925 17.5 24.1893 17.5 24.4987V29.1654C17.5 29.4748 17.6229 29.7715 17.8417 29.9903C18.0605 30.2091 18.3572 30.332 18.6667 30.332ZM19.8333 25.6654H23.3333V27.9987H19.8333V25.6654Z" fill="#FCBB00"/>
<path d="M36.1667 24.4987C36.1667 24.1893 36.0437 23.8925 35.825 23.6737C35.6062 23.455 35.3094 23.332 35 23.332H29.1667C28.8572 23.332 28.5605 23.455 28.3417 23.6737C28.1229 23.8925 28 24.1893 28 24.4987V29.1654C28 29.4748 28.1229 29.7715 28.3417 29.9903C28.5605 30.2091 28.8572 30.332 29.1667 30.332H35C35.3094 30.332 35.6062 30.2091 35.825 29.9903C36.0437 29.7715 36.1667 29.4748 36.1667 29.1654V24.4987ZM33.8333 27.9987H30.3333V25.6654H33.8333V27.9987Z" fill="#FCBB00"/>
<path d="M17.5 38.5013C17.5 38.8107 17.6229 39.1075 17.8417 39.3263C18.0605 39.545 18.3572 39.668 18.6667 39.668H24.5C24.8094 39.668 25.1062 39.545 25.325 39.3263C25.5437 39.1075 25.6667 38.8107 25.6667 38.5013V33.8346C25.6667 33.5252 25.5437 33.2285 25.325 33.0097C25.1062 32.7909 24.8094 32.668 24.5 32.668H18.6667C18.3572 32.668 18.0605 32.7909 17.8417 33.0097C17.6229 33.2285 17.5 33.5252 17.5 33.8346V38.5013ZM19.8333 35.0013H23.3333V37.3346H19.8333V35.0013Z" fill="#FCBB00"/>
<path d="M36.1667 33.8346C36.1667 33.5252 36.0437 33.2285 35.825 33.0097C35.6062 32.7909 35.3094 32.668 35 32.668H29.1667C28.8572 32.668 28.5605 32.7909 28.3417 33.0097C28.1229 33.2285 28 33.5252 28 33.8346V38.5013C28 38.8107 28.1229 39.1075 28.3417 39.3263C28.5605 39.545 28.8572 39.668 29.1667 39.668H35C35.3094 39.668 35.6062 39.545 35.825 39.3263C36.0437 39.1075 36.1667 38.8107 36.1667 38.5013V33.8346ZM33.8333 37.3346H30.3333V35.0013H33.8333V37.3346Z" fill="#FCBB00"/>
<path d="M17.5 47.8333C17.5 48.1428 17.6229 48.4395 17.8417 48.6583C18.0605 48.8771 18.3572 49 18.6667 49H24.5C24.8094 49 25.1062 48.8771 25.325 48.6583C25.5437 48.4395 25.6667 48.1428 25.6667 47.8333V43.1667C25.6667 42.8572 25.5437 42.5605 25.325 42.3417C25.1062 42.1229 24.8094 42 24.5 42H18.6667C18.3572 42 18.0605 42.1229 17.8417 42.3417C17.6229 42.5605 17.5 42.8572 17.5 43.1667V47.8333ZM19.8333 44.3333H23.3333V46.6667H19.8333V44.3333Z" fill="#FCBB00"/>
<path d="M35 42H29.1667C28.8572 42 28.5605 42.1229 28.3417 42.3417C28.1229 42.5605 28 42.8572 28 43.1667V47.8333C28 48.1428 28.1229 48.4395 28.3417 48.6583C28.5605 48.8771 28.8572 49 29.1667 49H35C35.3094 49 35.6062 48.8771 35.825 48.6583C36.0437 48.4395 36.1667 48.1428 36.1667 47.8333V43.1667C36.1667 42.8572 36.0437 42.5605 35.825 42.3417C35.6062 42.1229 35.3094 42 35 42ZM33.8333 46.6667H30.3333V44.3333H33.8333V46.6667Z" fill="#FCBB00"/>
<path d="M23.3333 53.6654H26.8333C27.4777 53.6654 28 53.143 28 52.4987C28 51.8544 27.4777 51.332 26.8333 51.332H22.1667C21.8572 51.332 21.5605 51.455 21.3417 51.6737C21.1229 51.8925 21 52.1893 21 52.4987V57.1654C21 57.8097 21.5223 58.332 22.1667 58.332C22.811 58.332 23.3333 57.8097 23.3333 57.1654V53.6654Z" fill="#FCBB00"/>
<path d="M31.5 0H1.16667C0.857248 3.09414e-06 0.560504 0.12292 0.341712 0.341712C0.122921 0.560504 3.09414e-06 0.857248 0 1.16667V61.8333C3.09414e-06 62.1427 0.122921 62.4395 0.341712 62.6583C0.560504 62.8771 0.857248 63 1.16667 63H5.83333C6.47766 63 7 62.4777 7 61.8333C7 61.189 6.47766 60.6667 5.83333 60.6667H2.33333V2.33333H30.3333V18.6667H28V15.1667C28 14.8572 27.8771 14.5605 27.6583 14.3417C27.4395 14.1229 27.1427 14 26.8333 14H18.6667C18.3572 14 18.0605 14.1229 17.8417 14.3417C17.6229 14.5605 17.5 14.8572 17.5 15.1667V18.6667H15.1667V15.1667C15.1667 14.8572 15.0437 14.5605 14.825 14.3417C14.6062 14.1229 14.3094 14 14 14H5.83333C5.52391 14 5.22717 14.1229 5.00838 14.3417C4.78959 14.5605 4.66667 14.8572 4.66667 15.1667V19.8333C4.66667 20.1427 4.78959 20.4395 5.00838 20.6583C5.22717 20.8771 5.52391 21 5.83333 21H12.8333V23.3333H5.83333C5.52391 23.3333 5.22717 23.4562 5.00838 23.675C4.78959 23.8938 4.66667 24.1906 4.66667 24.5V29.1667C4.66667 29.4761 4.78959 29.7728 5.00838 29.9916C5.22717 30.2104 5.52391 30.3333 5.83333 30.3333H12.8333V32.6667H5.83333C5.52391 32.6667 5.22717 32.7896 5.00838 33.0084C4.78959 33.2272 4.66667 33.5239 4.66667 33.8333V38.5C4.66667 38.8094 4.78959 39.1062 5.00838 39.3249C5.22717 39.5437 5.52391 39.6667 5.83333 39.6667H12.8333V45.5H9.33333C9.02391 45.5 8.72717 45.6229 8.50838 45.8417C8.28959 46.0605 8.16667 46.3572 8.16667 46.6667V58.3333C8.16667 58.9777 8.689 59.5 9.33333 59.5C9.97766 59.5 10.5 58.9777 10.5 58.3333V47.8333H12.8333V57.1667C12.8333 57.811 13.3557 58.3333 14 58.3333C14.6443 58.3333 15.1667 57.811 15.1667 57.1667V21H38.5V47.8333C38.5 48.4777 39.0223 49 39.6667 49C40.311 49 40.8333 48.4777 40.8333 47.8333V19.8333C40.8333 19.5239 40.7104 19.2272 40.4916 19.0084C40.2728 18.7896 39.9761 18.6667 39.6667 18.6667H32.6667V1.16667C32.6667 0.857248 32.5437 0.560504 32.325 0.341712C32.1062 0.12292 31.8094 3.09414e-06 31.5 0ZM19.8333 16.3333H25.6667V18.6667H19.8333V16.3333ZM7 16.3333H12.8333V18.6667H7V16.3333ZM7 28V25.6667H12.8333V28H7ZM7 37.3333V35H12.8333V37.3333H7Z" fill="#FCBB00"/>
<path d="M5.83464 11.668H14.0013C14.3107 11.668 14.6075 11.545 14.8263 11.3263C15.045 11.1075 15.168 10.8107 15.168 10.5013V5.83464C15.168 5.52522 15.045 5.22847 14.8263 5.00968C14.6075 4.79089 14.3107 4.66797 14.0013 4.66797H5.83464C5.52522 4.66797 5.22847 4.79089 5.00968 5.00968C4.79089 5.22847 4.66797 5.52522 4.66797 5.83464V10.5013C4.66797 10.8107 4.79089 11.1075 5.00968 11.3263C5.22847 11.545 5.52522 11.668 5.83464 11.668ZM7.0013 7.0013H12.8346V9.33463H7.0013V7.0013Z" fill="#FCBB00"/>
<path d="M18.6667 11.668H26.8333C27.1428 11.668 27.4395 11.545 27.6583 11.3263C27.8771 11.1075 28 10.8107 28 10.5013V5.83464C28 5.52522 27.8771 5.22847 27.6583 5.00968C27.4395 4.79089 27.1428 4.66797 26.8333 4.66797H18.6667C18.3572 4.66797 18.0605 4.79089 17.8417 5.00968C17.6229 5.22847 17.5 5.52522 17.5 5.83464V10.5013C17.5 10.8107 17.6229 11.1075 17.8417 11.3263C18.0605 11.545 18.3572 11.668 18.6667 11.668ZM19.8333 7.0013H25.6667V9.33463H19.8333V7.0013Z" fill="#FCBB00"/>
</svg>
