<svg width="70" height="70" viewBox="0 0 70 70" fill="none" xmlns="http://www.w3.org/2000/svg">
<path d="M64.7507 51.3333H57.7507V43.1667C57.7437 37.3707 53.0467 32.6737 47.2507 32.6667H37.9173V30.8618C40.8255 28.923 42.5757 25.6619 42.584 22.1667V18.6667H43.7507C45.6784 18.6715 47.2453 17.1127 47.2501 15.1847C47.2539 13.6811 46.2941 12.3439 44.8683 11.8662C44.3589 5.17942 38.7901 0.0105 32.084 0H29.7507C23.0445 0.0105 17.4757 5.17942 16.9663 11.8662C15.1383 12.4787 14.1529 14.4569 14.7654 16.2849C15.2432 17.7107 16.5803 18.6705 18.084 18.6667H19.2507V22.1667C19.2585 25.662 21.0088 28.9233 23.9173 30.8618V32.6667H14.584C8.78798 32.6737 4.09098 37.3707 4.08398 43.1667V60.6667C4.08398 61.311 4.60636 61.8333 5.25065 61.8333H13.4173V68.8333C13.4173 69.4776 13.9397 70 14.584 70H56.584C57.2283 70 57.7507 69.4776 57.7507 68.8333V61.9885L58.5895 62.7153C59.0279 63.0948 59.6783 63.0948 60.1167 62.7153L62.0522 61.0423L63.9877 62.7153C64.0454 62.7575 64.1071 62.7938 64.172 62.8238C64.2201 62.8578 64.2707 62.8879 64.3237 62.9137C64.4593 62.9694 64.6041 62.9987 64.7507 63C64.9114 62.9994 65.0703 62.9657 65.2173 62.9008C65.2475 62.8825 65.2767 62.8626 65.3048 62.8413C65.4158 62.7843 65.5167 62.7094 65.6035 62.6197C65.6117 62.6092 65.6257 62.6068 65.6338 62.5963C65.6644 62.5511 65.6914 62.5036 65.7143 62.454C65.7614 62.3863 65.8005 62.3136 65.831 62.237C65.8575 62.1591 65.8756 62.0785 65.8847 61.9967C65.8995 61.9431 65.9105 61.8885 65.9173 61.8333V52.5C65.9173 51.8557 65.3949 51.3333 64.7507 51.3333ZM48.4173 35.0828C52.4328 35.6681 55.4122 39.1087 55.4173 43.1667V46.6667H48.4173V35.0828ZM48.4173 49H55.4173V51.3333H48.4173V49ZM40.2507 35H46.084V51.3333H40.2507V35ZM26.2507 2.9435V7C26.2507 7.64429 26.773 8.16667 27.4173 8.16667C28.0616 8.16667 28.584 7.64429 28.584 7V2.4045C28.9712 2.359 29.3607 2.33523 29.7507 2.33333V8.16667C29.7507 8.81096 30.273 9.33333 30.9173 9.33333C31.5616 9.33333 32.084 8.81096 32.084 8.16667V2.33333C32.4739 2.33523 32.8635 2.359 33.2507 2.4045V7C33.2507 7.64429 33.773 8.16667 34.4173 8.16667C35.0616 8.16667 35.584 7.64429 35.584 7V2.9435C39.372 4.28808 42.0634 7.67302 42.5198 11.6667H19.3148C19.7713 7.67302 22.4626 4.28808 26.2507 2.9435ZM18.084 16.3333C17.4397 16.3333 16.9173 15.811 16.9173 15.1667C16.9173 14.5224 17.4397 14 18.084 14H43.7507C44.3949 14 44.9173 14.5224 44.9173 15.1667C44.9173 15.811 44.3949 16.3333 43.7507 16.3333H18.084ZM21.584 22.1667V18.6667H40.2507V22.1667C40.2491 25.0854 38.6885 27.781 36.158 29.2355C34.9222 29.9581 33.5156 30.3371 32.084 30.3333H29.7507C28.3151 30.3364 26.9052 29.9545 25.6673 29.2273C23.1416 27.7732 21.5846 25.081 21.584 22.1667ZM35.584 32.0682V35C35.584 37.5773 33.4946 39.6667 30.9173 39.6667C28.34 39.6667 26.2507 37.5773 26.2507 35V32.0658C26.4677 32.144 26.6905 32.207 26.9133 32.27C26.9588 32.2828 27.002 32.2992 27.0463 32.3167C27.4366 32.4173 27.8324 32.4952 28.2317 32.55C28.3273 32.564 28.4218 32.5757 28.5175 32.5862C28.9265 32.6376 29.3384 32.6645 29.7507 32.6667H32.084C32.4958 32.6639 32.9072 32.6369 33.316 32.5862C33.4128 32.5745 33.5085 32.5628 33.6042 32.5488C34.0011 32.4936 34.3944 32.4157 34.7825 32.3155C34.8338 32.3015 34.884 32.2828 34.9353 32.2677C35.1535 32.207 35.3717 32.144 35.584 32.0682ZM23.9173 35C23.9173 38.866 27.0513 42 30.9173 42C34.7834 42 37.9173 38.866 37.9173 35V51.3333H30.9173V50.1667C30.9173 49.5224 30.3949 49 29.7507 49H23.9173V35ZM22.7507 51.3333H28.584V63H22.7507C22.1064 63 21.584 62.4776 21.584 61.8333V61.6863C21.7424 61.6395 21.8983 61.5842 22.0507 61.5207C22.1207 61.495 22.1942 61.4763 22.263 61.4472C22.5197 61.3363 22.7657 61.2025 22.998 61.047C23.0482 61.0132 23.0913 60.9712 23.1403 60.9362C23.3174 60.809 23.4857 60.6703 23.6443 60.5208C23.7143 60.452 23.7762 60.3773 23.8427 60.305C23.9675 60.1724 24.0843 60.0326 24.1927 59.8862C24.2545 59.7998 24.3093 59.7112 24.3677 59.6213C24.4617 59.471 24.5466 59.3152 24.622 59.1547C24.6675 59.059 24.713 58.9645 24.7527 58.8653C24.8212 58.6851 24.8785 58.5008 24.9242 58.3135C24.9475 58.2225 24.9767 58.1362 24.9942 58.044C25.1124 57.4666 25.1124 56.8713 24.9942 56.294C24.9767 56.2018 24.9475 56.1155 24.9242 56.0245C24.8785 55.8372 24.8212 55.6529 24.7527 55.4727C24.713 55.3735 24.6675 55.279 24.622 55.1833C24.5466 55.0228 24.4617 54.867 24.3677 54.7167C24.3117 54.6268 24.251 54.5382 24.1927 54.4518C24.0843 54.3054 23.9675 54.1656 23.8427 54.033C23.7762 53.9607 23.7143 53.886 23.6443 53.8172C23.4857 53.6677 23.3174 53.529 23.1403 53.4018C23.0913 53.3668 23.0482 53.3248 22.998 53.291C22.7657 53.1355 22.5197 53.0017 22.263 52.8908C22.1942 52.8617 22.1207 52.843 22.0507 52.8173C21.8983 52.7537 21.7424 52.6985 21.584 52.6517V52.5C21.584 51.8557 22.1064 51.3333 22.7507 51.3333ZM15.7507 35H21.584V49.2147C20.1905 49.7073 19.2568 51.0221 19.2507 52.5H15.7507V35ZM6.41732 43.1667C6.42242 39.1087 9.4018 35.6681 13.4173 35.0828V46.6667H6.41732V43.1667ZM6.41732 59.5V49H13.4173V53.6667C13.4173 54.311 13.9397 54.8333 14.584 54.8333H20.4173C21.706 54.8333 22.7507 55.8779 22.7507 57.1667C22.7507 58.4554 21.706 59.5 20.4173 59.5H6.41732ZM46.084 61.8333V67.6667H15.7507V61.8333H19.2507C19.2507 63.7664 20.8176 65.3333 22.7507 65.3333H29.7507C30.3949 65.3333 30.9173 64.811 30.9173 64.1667V62.0562L31.6768 62.7142C32.1153 63.0944 32.7666 63.0944 33.2052 62.7142L35.1302 61.0447L37.0575 62.7142C37.496 63.0944 38.1473 63.0944 38.5858 62.7142L40.512 61.0447L42.4382 62.7142C42.8767 63.0944 43.528 63.0944 43.9665 62.7142L45.8938 61.0447L46.2135 61.3223C46.1312 61.4803 46.0869 61.6553 46.084 61.8333ZM55.4173 67.6667H48.4173V62.9708C48.7511 63.027 49.0925 62.9331 49.3507 62.7142L51.278 61.0435L53.2007 62.7153C53.6392 63.0955 54.2905 63.0955 54.729 62.7153L55.4173 62.118V67.6667ZM63.584 59.283L62.814 58.618C62.3759 58.2393 61.7261 58.2393 61.288 58.618L59.3537 60.291L57.4228 58.618C56.9843 58.2378 56.333 58.2378 55.8945 58.618L53.9648 60.2898L52.034 58.618C51.5955 58.2378 50.9442 58.2378 50.5057 58.618L48.5807 60.2875L46.658 58.618C46.2195 58.2378 45.5682 58.2378 45.1297 58.618L43.2023 60.2887L41.2762 58.6192C40.8375 58.2384 40.1853 58.2384 39.7467 58.6192L37.8217 60.2887L35.8943 58.6192C35.4558 58.239 34.8045 58.239 34.366 58.6192L32.441 60.2887L30.9173 58.968V53.6667H63.584V59.283Z" fill="#1168AC"/>
</svg>
