<svg width="100" height="100" viewBox="0 0 100 100" fill="none" xmlns="http://www.w3.org/2000/svg">
<circle cx="50" cy="50" r="50" fill="#1168AC"/>
<g clip-path="url(#clip0_500_391)">
<path d="M55.982 40.3652H39.9648V43.0892H55.982V40.3652Z" fill="white"/>
<path d="M55.982 45.0469H39.9648V47.7708H55.982V45.0469Z" fill="white"/>
<path d="M55.982 49.7402H39.9648V52.4642H55.982V49.7402Z" fill="white"/>
<path d="M47.9632 54.4336H39.9648V57.1575H47.9632V54.4336Z" fill="white"/>
<path d="M49.7075 63.8186H37.9752C37.4243 63.8186 36.9652 63.3697 36.9652 62.8086V38.4156C36.9652 37.8647 37.4141 37.4056 37.9752 37.4056H57.9609C58.5118 37.4056 58.9709 37.8545 58.9709 38.4156V54.0961C59.8789 53.8819 60.8379 53.7594 61.807 53.7594C62.7966 53.7594 63.7454 53.8819 64.6636 54.0961V33.4166C64.6636 31.2946 62.9395 29.5705 60.8174 29.5705H54.1759C53.3292 26.918 50.8501 25 47.9221 25C44.9942 25 42.5151 26.918 41.6683 29.5705H35.1186C32.9966 29.5705 31.2725 31.2946 31.2725 33.4166V66.0528C31.2725 68.1749 32.9966 69.899 35.1186 69.899H50.1054C49.7075 68.6952 49.4932 67.4199 49.4932 66.0835C49.4932 65.3081 49.5748 64.5532 49.7075 63.8186ZM47.9221 29.2848C49.1872 29.2848 50.2176 30.3152 50.2176 31.5803C50.2176 32.8453 49.1872 33.8757 47.9221 33.8757C46.6571 33.8757 45.6267 32.8453 45.6267 31.5803C45.6267 30.305 46.6571 29.2848 47.9221 29.2848Z" fill="white"/>
<path d="M61.8066 57.1484C56.8791 57.1484 52.8799 61.1476 52.8799 66.0752C52.8799 71.0028 56.8791 75.0019 61.8066 75.0019C66.7342 75.0019 70.7334 71.0028 70.7334 66.0752C70.7334 61.1476 66.7342 57.1484 61.8066 57.1484ZM64.3775 69.6051C63.9899 70.0744 63.4798 70.4008 62.888 70.5641C62.633 70.6355 62.5106 70.7681 62.531 71.0334C62.5412 71.2986 62.531 71.5639 62.531 71.8291C62.531 72.0638 62.4085 72.1862 62.1739 72.1964C61.8882 72.2066 61.6026 72.2066 61.3271 72.1964C61.0823 72.1964 60.9599 72.0536 60.9599 71.8087C60.9599 71.6149 60.9599 71.421 60.9497 71.2272C60.9497 70.7987 60.9293 70.7885 60.5212 70.7171C60.0009 70.6355 59.4806 70.5131 59.0011 70.2784C58.6236 70.0948 58.5828 70.003 58.695 69.6051C58.7766 69.3092 58.8583 69.0134 58.9501 68.7277C59.0521 68.391 59.1439 68.3502 59.4602 68.5135C59.9907 68.7889 60.5518 68.9419 61.1435 69.0134C61.521 69.0644 61.8984 69.0236 62.2453 68.8705C62.8982 68.5849 63.0003 67.8197 62.4494 67.3708C62.2555 67.2178 62.0515 67.1056 61.8168 67.0036C61.2455 66.7485 60.6436 66.5547 60.0927 66.2282C59.2153 65.6977 58.6542 64.9734 58.7154 63.9022C58.7868 62.6881 59.4704 61.9332 60.5824 61.5251C61.0415 61.3619 61.0415 61.3619 61.0415 60.8824C61.0415 60.7191 61.0415 60.5559 61.0415 60.3927C61.0517 60.0356 61.1129 59.9642 61.47 59.954C61.5822 59.954 61.6944 59.954 61.8066 59.954C62.5718 59.954 62.5718 59.954 62.582 60.7191C62.582 61.2598 62.582 61.2598 63.1227 61.3517C63.541 61.4129 63.9286 61.5353 64.3163 61.7087C64.5306 61.8005 64.602 61.9536 64.5408 62.1678C64.4489 62.4943 64.3571 62.831 64.2449 63.1574C64.1429 63.4635 64.0409 63.5145 63.745 63.3717C63.1431 63.086 62.5208 62.9636 61.8576 62.9942C61.6842 63.0044 61.5108 63.0248 61.3577 63.0962C60.7864 63.3513 60.6946 63.9736 61.1843 64.3612C61.4292 64.5551 61.7148 64.6979 62.0005 64.8203C62.5106 65.0346 63.0207 65.2284 63.5002 65.4937C65.0407 66.371 65.4487 68.289 64.3775 69.6051Z" fill="white"/>
</g>
<defs>
<clipPath id="clip0_500_391">
<rect width="50" height="50" fill="white" transform="translate(26 25)"/>
</clipPath>
</defs>
</svg>
