<svg width="70" height="70" viewBox="0 0 70 70" fill="none" xmlns="http://www.w3.org/2000/svg">
<g clip-path="url(#clip0_500_557)">
<path d="M18.5347 48.0232L14.7547 44.6216C13.0692 43.1046 10.6903 42.8224 8.75 43.7445V33.9084C8.75 31.8674 7.95047 29.9534 6.49578 28.5205C5.04219 27.0866 3.10734 26.3473 1.07844 26.3418C0.480156 26.3505 0 26.8373 0 27.4355V48.0352C0 48.2135 0.04375 48.3896 0.126875 48.5482L8.75 64.8046V68.9073C8.75 69.5113 9.23969 70.001 9.84375 70.001C10.4478 70.001 10.9375 69.5113 10.9375 68.9073V64.5323C10.9375 64.354 10.8938 64.1779 10.8106 64.0193L2.1875 47.7629V28.6212C3.22875 28.817 4.18797 29.3168 4.96016 30.078C5.99266 31.0974 6.5625 32.457 6.5625 33.9084V45.9385C6.5625 45.956 6.56359 45.9724 6.56469 45.9899C6.56469 45.9998 6.56469 46.0096 6.56578 46.0195C6.56797 46.0468 6.57125 46.0741 6.57453 46.1026C6.57672 46.1157 6.57891 46.1288 6.58219 46.142C6.58547 46.1573 6.58766 46.1726 6.59094 46.1879C6.59422 46.2021 6.59859 46.2163 6.60188 46.2305C6.60516 46.2448 6.60953 46.2579 6.61391 46.271C6.61828 46.2852 6.62375 46.2995 6.62813 46.3137C6.6325 46.3268 6.63797 46.341 6.64344 46.3541L6.65984 46.3935C6.66641 46.4088 6.67406 46.4241 6.68281 46.4395C6.68828 46.4504 6.69375 46.4602 6.69922 46.4712C6.71344 46.4974 6.72875 46.5226 6.74516 46.5466L11.1202 53.1091L12.9402 51.8962L9.07813 46.0982C10.3152 45.1313 12.0969 45.1707 13.2923 46.247L17.0723 49.6485C19.367 51.7146 20.5702 54.7826 20.2902 57.8571L19.6875 64.5323V68.9077C19.6875 69.5115 20.177 70.001 20.7808 70.001C21.385 70.001 21.8746 69.511 21.8741 68.9068L21.8706 64.6318L22.4689 58.0562C22.8091 54.2991 21.3402 50.5487 18.5347 48.0232Z" fill="#1168AC"/>
<path d="M68.9212 26.3418C66.8759 26.3407 64.9564 27.0877 63.5039 28.5205C62.0492 29.9534 61.2497 31.8674 61.2497 33.9084V43.7445C59.3072 42.8224 56.9283 43.1046 55.245 44.6216L51.465 48.0232C48.6606 50.5487 47.1906 54.298 47.5308 58.0562L48.1247 64.5323V68.9077C48.1247 69.5115 48.6142 70.001 49.218 70.001C49.8222 70.001 50.3118 69.511 50.3113 68.9068L50.3078 64.4327L49.7095 57.8571C49.4295 54.7826 50.6337 51.7146 52.9273 49.6485L56.7073 46.247C57.9039 45.1718 59.6845 45.1302 60.9216 46.0982L57.0584 51.894L58.8784 53.107L63.2534 46.5445C63.2698 46.5193 63.2851 46.4941 63.2994 46.469C63.3048 46.458 63.3103 46.4482 63.3158 46.4373C63.3234 46.422 63.3311 46.4066 63.3387 46.3913C63.3442 46.3782 63.3497 46.3651 63.3551 46.352C63.3606 46.3388 63.3661 46.3257 63.3705 46.3115C63.3759 46.2973 63.3803 46.283 63.3858 46.2688C63.3901 46.2557 63.3934 46.2426 63.3967 46.2295C63.4011 46.2141 63.4055 46.1999 63.4087 46.1846C63.412 46.1704 63.4142 46.1562 63.4175 46.142C63.4197 46.1277 63.423 46.1146 63.4251 46.1015C63.4295 46.0741 63.4328 46.0468 63.4339 46.0184C63.435 46.0085 63.435 45.9987 63.435 45.9888C63.4361 45.9724 63.4372 45.956 63.4372 45.9385V33.9084C63.4372 32.457 64.007 31.0974 65.0395 30.078C65.8117 29.3168 66.7709 28.817 67.8122 28.6212V47.7629L59.1891 64.0193C59.1059 64.1779 59.0622 64.354 59.0622 64.5323V68.9073C59.0622 69.5113 59.5519 70.001 60.1559 70.001C60.76 70.001 61.2497 69.5113 61.2497 68.9073V64.8046L69.8728 48.5482C69.9559 48.3896 69.9997 48.2135 69.9997 48.0352V27.4355C69.9997 26.8373 69.5195 26.3505 68.9212 26.3418Z" fill="#1168AC"/>
<path d="M22.9688 49.2188C22.9688 48.6147 23.4584 48.125 24.0625 48.125H45.9375C46.5416 48.125 47.0312 48.6147 47.0312 49.2188C47.0312 49.8228 46.5416 50.3125 45.9375 50.3125H24.0625C23.4584 50.3125 22.9688 49.8228 22.9688 49.2188Z" fill="#1168AC"/>
<path d="M23.882 36.1137C24.0802 36.6843 24.5522 37.1875 25.1562 37.1875C25.7603 37.1875 26.2614 36.6929 26.1416 36.1008C25.6362 33.6041 23.4247 31.7188 20.7812 31.7188C18.1378 31.7188 15.9263 33.6041 15.4209 36.1008C15.3011 36.6929 15.8022 37.1875 16.4062 37.1875C17.0103 37.1875 17.4823 36.6843 17.6805 36.1137C18.1263 34.8302 19.3481 33.9062 20.7812 33.9062C22.2144 33.9062 23.4362 34.8302 23.882 36.1137Z" fill="#1168AC"/>
<path d="M19.6875 40.4688C19.6875 41.0725 19.1975 41.5625 18.5938 41.5625C17.9897 41.5625 17.5 42.0522 17.5 42.6562C17.5 43.2603 17.9897 43.75 18.5938 43.75C20.4028 43.75 21.875 42.2778 21.875 40.4688V37.1875C21.875 36.5834 21.3853 36.0938 20.7812 36.0938C20.1772 36.0938 19.6875 36.5834 19.6875 37.1875V40.4688Z" fill="#1168AC"/>
<path d="M39.375 38.2812V42.6562C39.375 43.2611 39.8639 43.75 40.4688 43.75H51.4062C53.2153 43.75 54.6875 42.2778 54.6875 40.4688V36.0938C54.6875 35.4889 54.1986 35 53.5938 35H51.5889C50.9848 35 50.4952 35.4897 50.4952 36.0938C50.4952 36.6978 50.9848 37.1875 51.5889 37.1875H52.5V40.4688C52.5 41.0725 52.01 41.5625 51.4062 41.5625H41.5625V38.2812C41.5625 37.6775 42.0525 37.1875 42.6562 37.1875H47.0312C47.6353 37.1875 48.125 36.6978 48.125 36.0938C48.125 35.4897 47.6353 35 47.0312 35H42.6562C40.8472 35 39.375 36.4722 39.375 38.2812Z" fill="#1168AC"/>
<path d="M11.1114 9.25203C11.0841 9.29578 11.0589 9.34063 11.037 9.38766C11.0162 9.43469 10.9977 9.48281 10.9823 9.53203V9.53312C10.9758 9.55609 10.9692 9.57906 10.9648 9.60312C10.9648 9.60531 10.9638 9.6075 10.9638 9.61078C10.9583 9.63375 10.9539 9.65781 10.9506 9.68188C10.9506 9.68516 10.9495 9.68844 10.9495 9.69172C10.9462 9.71141 10.9452 9.73109 10.943 9.74969C10.9419 9.75625 10.9419 9.76391 10.9419 9.77047C10.9386 9.78906 10.9386 9.80656 10.9375 9.82516V9.84266V9.84375V39.375C10.9375 39.9791 11.4272 40.4688 12.0312 40.4688C12.6353 40.4688 13.125 39.9791 13.125 39.375V10.9375H20.7812C21.3853 10.9375 21.875 10.4478 21.875 9.84375C21.875 9.23969 21.3853 8.75 20.7812 8.75H14.4419L20.1841 2.1875H30.3187L28.6781 8.75H25.1562C24.5522 8.75 24.0625 9.23969 24.0625 9.84375C24.0625 10.4478 24.5522 10.9375 25.1562 10.9375H28.4375V18.5938C28.4375 19.1986 28.9264 19.6875 29.5312 19.6875H40.4688C41.0736 19.6875 41.5625 19.1986 41.5625 18.5938V10.9375H56.875V39.375C56.875 39.9791 57.3647 40.4688 57.9688 40.4688C58.5728 40.4688 59.0625 39.9791 59.0625 39.375V9.84375V9.84156C59.0625 9.83609 59.0625 9.83062 59.0625 9.82406C59.0625 9.80656 59.0614 9.78797 59.0603 9.77047C59.0603 9.76391 59.0592 9.75625 59.0592 9.74969C59.057 9.73 59.0559 9.71031 59.0527 9.69172C59.0527 9.68844 59.0516 9.68516 59.0516 9.68188C59.0483 9.65781 59.0439 9.63375 59.0384 9.61078C59.0384 9.60859 59.0373 9.60641 59.0373 9.60312C59.0319 9.58016 59.0264 9.55609 59.0198 9.53312V9.53203C58.9903 9.43141 58.9466 9.33734 58.8908 9.25094L58.8886 9.24875C58.8602 9.205 58.8295 9.16453 58.7956 9.12625C58.7945 9.12516 58.7945 9.12406 58.7934 9.12297L51.1372 0.372969C50.9272 0.135625 50.6275 0 50.3125 0H19.6875C19.3725 0 19.0728 0.135625 18.8639 0.374063L11.2077 9.12406C11.2066 9.12516 11.2066 9.12625 11.2055 9.12734C11.1716 9.16562 11.1409 9.20719 11.1125 9.24984L11.1114 9.25203ZM39.375 17.5H30.625V10.9375H39.375V17.5ZM55.5581 8.75H41.3219L39.6812 2.1875H49.8159L55.5581 8.75ZM37.427 2.1875L39.0677 8.75H30.9323L32.573 2.1875H37.427Z" fill="#1168AC"/>
<path d="M15.3125 14.2188C15.3125 13.6147 15.8022 13.125 16.4062 13.125H20.7812C21.3853 13.125 21.875 13.6147 21.875 14.2188C21.875 14.8228 21.3853 15.3125 20.7812 15.3125H16.4063C15.8022 15.3125 15.3125 14.8228 15.3125 14.2188Z" fill="#1168AC"/>
<path d="M15.3125 18.5938C15.3125 17.9897 15.8022 17.5 16.4062 17.5H22.9688C23.5728 17.5 24.0625 17.9897 24.0625 18.5938C24.0625 19.1978 23.5728 19.6875 22.9688 19.6875H16.4062C15.8022 19.6875 15.3125 19.1978 15.3125 18.5938Z" fill="#1168AC"/>
<path d="M48.1257 20.7812C48.1465 20.7812 48.1662 20.7802 48.187 20.7791C48.4965 20.7616 48.7863 20.6139 48.981 20.3711L53.356 14.9023L51.6476 13.5352L48.036 18.0502L46.7126 16.7267L45.166 18.2733L47.3535 20.4608C47.557 20.6675 47.8359 20.7812 48.1257 20.7812Z" fill="#1168AC"/>
<path d="M47.3524 28.117C47.557 28.3238 47.8359 28.4375 48.1257 28.4375C48.1465 28.4375 48.1662 28.4364 48.187 28.4353C48.4965 28.4178 48.7863 28.2702 48.981 28.0273L53.356 22.5586L51.6476 21.1914L48.036 25.7064L46.7126 24.383L45.166 25.9295L47.3524 28.117Z" fill="#1168AC"/>
</g>
<defs>
<clipPath id="clip0_500_557">
<rect width="70" height="70" fill="white"/>
</clipPath>
</defs>
</svg>
