<svg width="17" height="18" viewBox="0 0 17 18" fill="none" xmlns="http://www.w3.org/2000/svg">
<path d="M17 2.66009C17 1.56803 16.1064 0.679688 15.0078 0.679688C14.6051 0.679688 3.46415 0.679688 1.99219 0.679688C0.893631 0.679688 0 1.56803 0 2.66009V15.5987C0 16.6908 0.893631 17.5791 1.99219 17.5791H15.0078C16.1064 17.5791 17 16.6908 17 15.5987C17 15.1984 17 4.12334 17 2.66009ZM15.6719 2.66009V8.46926H9.16406V1.99995H15.0078C15.374 1.99995 15.6719 2.29611 15.6719 2.66009ZM1.99219 1.99995H7.83594V8.46926H1.32812V2.66009C1.32812 2.29611 1.62605 1.99995 1.99219 1.99995ZM1.32812 15.5987V9.78953H7.83594V16.2588H1.99219C1.62605 16.2588 1.32812 15.9627 1.32812 15.5987ZM15.0078 16.2588H9.16406V9.78953H15.6719V15.5987C15.6719 15.9627 15.374 16.2588 15.0078 16.2588ZM2.61202 5.23461C2.61202 4.86999 2.90929 4.57447 3.27608 4.57447H3.91797V3.93639C3.91797 3.57177 4.21524 3.27626 4.58203 3.27626C4.94882 3.27626 5.24609 3.57177 5.24609 3.93639V4.57447H5.88798C6.25477 4.57447 6.55204 4.86999 6.55204 5.23461C6.55204 5.59923 6.25477 5.89474 5.88798 5.89474H5.24609V6.53283C5.24609 6.89745 4.94882 7.19296 4.58203 7.19296C4.21524 7.19296 3.91797 6.89745 3.91797 6.53283V5.89474H3.27608C2.90929 5.89474 2.61202 5.59923 2.61202 5.23461ZM11.025 4.78334C10.7656 4.52561 10.7656 4.10761 11.025 3.84987C11.2843 3.59201 11.7048 3.59201 11.964 3.84987L12.418 4.30101L12.8719 3.84987C13.1312 3.59201 13.5517 3.59201 13.8109 3.84987C14.0703 4.10761 14.0703 4.52561 13.8109 4.78334L13.3571 5.23461L13.8109 5.68587C14.0703 5.94361 14.0703 6.3616 13.8109 6.61934C13.5517 6.87721 13.1312 6.87721 12.8719 6.61934L12.418 6.16821L11.964 6.61934C11.7048 6.87721 11.2843 6.87721 11.025 6.61934C10.7656 6.3616 10.7656 5.94361 11.025 5.68587L11.4788 5.23461L11.025 4.78334ZM6.55204 13.0242C6.55204 13.3888 6.25477 13.6843 5.88798 13.6843H3.27608C2.90929 13.6843 2.61202 13.3888 2.61202 13.0242C2.61202 12.6596 2.90929 12.364 3.27608 12.364H5.88811C6.25477 12.364 6.55204 12.6596 6.55204 13.0242ZM14.388 14.3224C14.388 14.687 14.0907 14.9825 13.7239 14.9825H11.112C10.7452 14.9825 10.448 14.687 10.448 14.3224C10.448 13.9578 10.7452 13.6623 11.112 13.6623H13.7239C14.0907 13.6623 14.388 13.9578 14.388 14.3224ZM14.388 11.726C14.388 12.0906 14.0907 12.3861 13.7239 12.3861H11.112C10.7452 12.3861 10.448 12.0906 10.448 11.726C10.448 11.3613 10.7452 11.0658 11.112 11.0658H13.7239C14.0907 11.0658 14.388 11.3613 14.388 11.726Z" fill="#1168AC"/>
</svg>
