<svg width="71" height="72" viewBox="0 0 71 72" fill="none" xmlns="http://www.w3.org/2000/svg">
<path d="M17.3699 0.75C8.20545 0.75 0.75 8.20545 0.75 17.3699C0.75 26.5343 8.20545 33.9897 17.3699 33.9897C26.5343 33.9897 33.9897 26.5343 33.9897 17.3699C33.9897 8.20545 26.5343 0.75 17.3699 0.75ZM17.3699 32.3984C9.08346 32.3984 2.34132 25.6563 2.34132 17.3699C2.34132 9.08346 9.08346 2.34132 17.3699 2.34132C25.6563 2.34132 32.3984 9.08346 32.3984 17.3699C32.3984 25.6563 25.6563 32.3984 17.3699 32.3984Z" fill="#1168AC" stroke="#1168AC" stroke-width="0.5"/>
<path d="M17.37 4.07734C16.9585 4.07734 16.6243 4.41067 16.6243 4.82301V17.1732H8.63941C8.22788 17.1732 7.89375 17.5066 7.89375 17.9189C7.89375 18.3312 8.22788 18.6646 8.63941 18.6646H17.37C17.7815 18.6646 18.1157 18.3312 18.1157 17.9189V4.82301C18.1157 4.41067 17.7815 4.07734 17.37 4.07734Z" fill="#1168AC" stroke="#1168AC" stroke-width="0.4"/>
<path d="M40.8854 47.5175C42.644 47.0463 43.6914 45.2322 43.2201 43.4735C42.7489 41.7149 40.9348 40.6676 39.1762 41.1388L34.9237 42.2782C34.3366 42.4356 33.9881 43.039 34.1455 43.6262L35.0001 46.8156L33.9369 47.1004C33.3498 47.2577 33.0014 47.8612 33.1587 48.4484C33.316 49.0356 33.9195 49.384 34.5067 49.2266L35.5698 48.9418L36.1395 51.0681L35.0764 51.353C34.4893 51.5103 34.1408 52.1138 34.2982 52.701C34.4555 53.2881 35.059 53.6366 35.6461 53.4792L36.7093 53.1944L36.9941 54.2573C37.1514 54.8444 37.7549 55.1929 38.342 55.0355C38.9292 54.8782 39.2776 54.2747 39.1203 53.6875L38.8355 52.6246L42.0248 51.7701C42.6119 51.6128 42.9604 51.0092 42.8031 50.4221C42.6458 49.8349 42.0422 49.4865 41.4551 49.6438L38.2658 50.4984L37.696 48.3721L40.8854 47.5175ZM36.5566 44.1196L39.7459 43.265C40.3321 43.1079 40.9368 43.4571 41.0939 44.0433C41.251 44.6295 40.9018 45.2342 40.3156 45.3912L37.1263 46.2458L36.5566 44.1196Z" fill="#1168AC"/>
<path d="M61.2068 26.1588C51.2305 26.1906 42.7696 29.8052 34.5868 33.3008C30.7789 34.9275 26.8415 36.6095 22.8004 37.8868C22.2208 38.07 21.8994 38.6884 22.0826 39.268C22.2659 39.8476 22.8845 40.1681 23.4638 39.9858C27.6074 38.6761 31.5951 36.9726 35.4516 35.3252C43.5515 31.865 51.216 28.5908 60.3689 28.3716L67.0039 53.134C57.6412 53.483 49.5976 56.9191 41.8068 60.2474C34.0958 63.5413 26.1294 66.9442 16.976 67.1433L10.3413 42.3824C11.4155 42.3453 12.4988 42.2664 13.5767 42.1469C14.1805 42.0802 14.6163 41.5357 14.5492 40.9317C14.4822 40.3275 13.9382 39.892 13.334 39.9591C11.8565 40.123 10.3694 40.2061 8.91362 40.2061C8.57172 40.2059 8.24888 40.3652 8.04042 40.6368C7.83215 40.9082 7.76195 41.2611 7.85051 41.5916L15.0708 68.5379C15.1997 69.0191 15.6357 69.3537 16.1339 69.3536C20.3496 69.3537 24.2898 68.7089 28.0517 67.7008C33.1774 66.3273 37.9712 64.2795 42.6718 62.2715C51.0199 58.7053 58.9052 55.3366 68.4341 55.3064C68.7757 55.3052 69.0974 55.1457 69.3049 54.8744C69.5124 54.6031 69.5821 54.2509 69.4937 53.9209L62.2734 26.9746C62.1443 26.4921 61.7063 26.1572 61.2068 26.1588Z" fill="#1168AC"/>
<path d="M14.6327 49.8945L17.2675 59.7279C17.4248 60.315 18.0283 60.6635 18.6155 60.5061C20.3741 60.0349 22.1882 61.0823 22.6594 62.8409C22.6914 62.9601 22.7172 63.0841 22.7361 63.2094C22.7811 63.5078 22.9467 63.7746 23.1941 63.9474C23.4415 64.1202 23.7489 64.184 24.0446 64.1236C25.0036 63.9278 25.9534 63.7011 26.896 63.4484C31.7614 62.1447 36.4166 60.1561 40.942 58.2229C43.5506 57.1085 46.3275 55.9341 49.0764 54.9022C49.6455 54.6885 49.9337 54.054 49.72 53.485C49.5064 52.916 48.8732 52.6278 48.3027 52.8415C45.5113 53.8893 42.7085 55.0746 40.0772 56.1987C35.0913 58.3287 29.9466 60.5261 24.617 61.7473C23.7614 59.4818 21.5146 58.0573 19.1375 58.2018L17.0157 50.2833C18.85 49.3763 20.0235 47.5284 20.0613 45.4815C25.8153 44.1348 31.2358 41.9134 37.1807 39.3737C42.4395 37.1272 47.4241 34.9981 52.7314 33.7811C53.589 36.0427 55.8336 37.4642 58.2085 37.3199L60.3308 45.2403C58.1839 46.3016 56.943 48.65 57.3669 51.0998C57.4706 51.6987 58.0402 52.1002 58.6391 51.9966C59.2384 51.8929 59.6396 51.3233 59.5359 50.7244C59.2432 49.0332 60.2749 47.4222 61.9356 46.9772C62.5227 46.8199 62.8712 46.2164 62.7139 45.6292L60.0785 35.7939C59.9212 35.2067 59.3176 34.8584 58.7305 35.0157C56.9719 35.4869 55.1578 34.4395 54.6866 32.6809C54.655 32.5631 54.6295 32.4411 54.6109 32.318C54.5656 32.0195 54.3999 31.7528 54.1523 31.5802C53.9047 31.4076 53.5971 31.3442 53.3014 31.4049C47.3936 32.6172 41.7621 35.0229 36.3159 37.3495C30.1564 39.9808 24.577 42.2629 18.6634 43.5399C18.0874 43.6657 17.7111 44.2213 17.8111 44.8025C18.1019 46.4924 17.0701 48.102 15.4108 48.5466C14.8238 48.7038 14.4753 49.3073 14.6327 49.8945Z" fill="#1168AC"/>
<path d="M18.5609 41.3148C18.5854 41.3099 18.6095 41.3044 18.6333 41.298C19.1881 41.1494 19.5402 40.5934 19.4271 40.0217C19.3093 39.4254 18.7302 39.0376 18.1338 39.1555L18.1331 39.1557C17.5368 39.2741 17.1494 39.8526 17.2673 40.4488C17.3853 41.045 17.9646 41.4327 18.5609 41.3148Z" fill="#1168AC"/>
<path d="M53.0871 51.1938C52.5001 51.3511 52.1519 51.9545 52.3093 52.5416C52.4666 53.1288 53.0704 53.4771 53.6576 53.3198C54.2447 53.1625 54.5932 52.559 54.4358 51.9718C54.2785 51.3847 53.6749 51.0363 53.0879 51.1936L53.0871 51.1938Z" fill="#1168AC"/>
</svg>
