<svg width="100" height="100" viewBox="0 0 100 100" fill="none" xmlns="http://www.w3.org/2000/svg">
<circle cx="50" cy="50" r="50" fill="#1168AC"/>
<g clip-path="url(#clip0_500_385)">
<path d="M26.2792 34.6235C25.3462 31.7957 26.8877 28.7356 29.7158 27.8025C32.544 26.8693 35.6039 28.4112 36.5369 31.2391L47.1494 63.4036C46.1604 63.1425 45.1086 63.0947 44.0586 63.2867L33.7844 32.1473C33.352 30.8369 31.9345 30.1227 30.6241 30.5551C29.3136 30.9874 28.5995 32.405 29.0318 33.7154C29.2826 34.4754 28.8698 35.295 28.1096 35.5458C27.3496 35.7965 26.5301 35.3836 26.2792 34.6235ZM68.0922 59.8555L50.7044 65.5926C51.3214 66.2932 51.8106 67.126 52.1212 68.0671C52.1322 68.1007 52.1384 68.1346 52.149 68.1683L69.0005 62.6081C69.7605 62.3574 70.1734 61.5378 69.9227 60.7778C69.6719 60.0176 68.8522 59.6047 68.0922 59.8555ZM50.745 68.5215C51.7302 71.5074 50.1082 74.7265 47.1224 75.7117C44.1366 76.6969 40.9174 75.075 39.9322 72.0892C38.947 69.1032 40.569 65.8842 43.5548 64.899C46.5406 63.9137 49.7598 65.5357 50.745 68.5215ZM48.0418 69.4134C47.5492 67.9205 45.9397 67.1096 44.4467 67.6022C42.9538 68.0947 42.1429 69.7043 42.6354 71.1972C43.128 72.6901 44.7375 73.501 46.2305 73.0085C47.7234 72.5159 48.5343 70.9062 48.0418 69.4134ZM63.698 38.0379L69.6012 55.9298C69.7266 56.3098 69.5202 56.7196 69.1401 56.845L50.5601 62.9753C50.1801 63.1007 49.7703 62.8943 49.645 62.5142L43.7417 44.6223C43.6163 44.2422 43.8228 43.8325 44.2028 43.7071L62.7828 37.5767C63.1628 37.4515 63.5726 37.6579 63.698 38.0379ZM61.2402 48.4312L54.9136 44.9504L51.9018 51.5124L53.8959 52.4301L55.1981 49.5913L57.5494 56.7181L59.7999 55.9756L57.4488 48.8499L60.1838 50.3554L61.2402 48.4312ZM55.7196 37.7571L51.9455 26.3182C51.8653 26.0753 51.6033 25.9432 51.3603 26.0235L48.1241 27.0912L48.1083 27.1203L48.0812 27.1054L46.3737 27.6688L47.7798 31.9302L45.8539 32.5656L44.4479 28.3043L42.7399 28.8678L42.727 28.8959L42.6968 28.8821L39.4816 29.9429C39.2385 30.0231 39.1067 30.2851 39.1868 30.528L42.9611 41.967C43.0412 42.21 43.3032 42.342 43.5462 42.2618L55.4251 38.3423C55.6678 38.2621 55.7999 38.0001 55.7196 37.7571Z" fill="white"/>
</g>
<defs>
<clipPath id="clip0_500_385">
<rect width="50" height="50" fill="white" transform="translate(23 26)"/>
</clipPath>
</defs>
</svg>
