<svg width="32" height="30" viewBox="0 0 32 30" fill="none" xmlns="http://www.w3.org/2000/svg">
<path fill-rule="evenodd" clip-rule="evenodd" d="M17.2796 0.406976L30.9786 9.96969C31.8012 10.544 32.1428 11.5898 31.8156 12.5357L26.3047 28.4764C25.9911 29.3813 25.1339 30 24.1711 30H7.40646C6.42736 30 5.55973 29.3611 5.25922 28.434L0.108828 12.5175C-0.194289 11.5819 0.150548 10.5564 0.959513 9.9912L14.6878 0.407628C15.4655 -0.135441 16.5019 -0.136093 17.2796 0.406976Z" fill="#1168AC"/>
<path fill-rule="evenodd" clip-rule="evenodd" d="M19.7027 21.6974L18.8475 22.5455C18.7738 22.6179 18.6558 22.6179 18.5822 22.5455L16.1787 20.1649C16.1057 20.0919 16.1051 19.9752 16.1781 19.9029L16.4304 19.6506L16.1814 19.4113L15.9473 18.8273L12.2832 22.4425C12.1522 22.5722 11.9403 22.5716 11.8093 22.4425L10.8224 21.4647C10.6913 21.3343 10.6913 21.1231 10.8224 20.9947L14.3522 17.5138L13.5687 16.7602C12.3725 17.7608 10.5838 17.7302 9.42346 16.6364C8.18101 15.4643 8.62558 15.1025 7.65234 10.4971C10.1529 11.044 12.4664 11.0042 13.7095 12.1769C14.9089 13.3079 14.9937 15.1592 13.9363 16.3939L14.7218 17.1481L16.0177 17.6265L16.3182 18.4329L16.3254 18.4538L16.5438 19.0404L16.798 19.2842L17.0314 19.0515C17.1044 18.9792 17.223 18.9792 17.2967 19.0515L19.7027 21.436C19.7757 21.5077 19.7757 21.6251 19.7027 21.6974ZM22.1609 16.4004L21.0312 14.8294L21.1153 14.7472L20.9986 14.6012C20.6245 14.7857 20.1988 14.8229 19.7875 14.6905L17.8364 16.6227C17.6324 16.8247 17.504 17.0894 17.4727 17.373L16.8489 17.9916L16.4278 17.2576L15.1234 16.7706L15.9936 15.9076C16.2804 15.8769 16.5484 15.7498 16.7511 15.5477L18.7028 13.6163C18.5972 13.2962 18.59 12.9611 18.678 12.6489L17.914 12.1228L17.3893 10.4228L17.5868 10.2266L19.3031 10.7468L19.837 11.5068C20.3891 11.3536 21.0052 11.4781 21.4367 11.8908C21.968 12.3992 22.0873 13.1678 21.7952 13.7936L21.9523 13.9168L22.0371 13.834C22.0371 13.834 23.2893 14.624 23.6217 14.9539C23.3408 15.9525 22.1609 16.4004 22.1609 16.4004Z" fill="white"/>
</svg>
