<svg width="100" height="100" viewBox="0 0 100 100" fill="none" xmlns="http://www.w3.org/2000/svg">
<circle cx="50" cy="50" r="50" fill="#FCCA3A"/>
<g clip-path="url(#clip0_500_628)">
<path d="M61.9976 30.5067C61.9976 29.9368 61.6677 29.3969 61.1578 29.157C60.6179 28.887 60.018 28.977 59.568 29.3369L46.2803 39.9252L61.9976 55.6425V30.5067Z" fill="black"/>
<path d="M70.5557 68.44L31.5623 29.4465C30.9773 28.8616 30.0265 28.8616 29.4416 29.4465C28.8567 30.0314 28.8567 30.9822 29.4416 31.5671L38.878 41.0066H37.9992C37.0693 41.0066 36.2595 41.4265 35.7196 42.0864C35.2696 42.5963 34.9997 43.2862 34.9997 44.0061V56.004C34.9997 57.6538 36.3495 59.0035 37.9992 59.0035H44.958L59.5656 70.6716C59.8355 70.8815 60.1655 71.0015 60.4954 71.0015C60.7054 71.0015 60.9453 70.9415 61.1553 70.8516C61.6652 70.6116 61.9952 70.0717 61.9952 69.5018V64.1237L68.4321 70.5606C68.726 70.8546 69.11 71.0015 69.4939 71.0015C69.8778 71.0015 70.2618 70.8546 70.5557 70.5636C71.1406 69.9757 71.1406 69.0279 70.5557 68.44Z" fill="black"/>
</g>
<defs>
<clipPath id="clip0_500_628">
<rect width="42" height="42" fill="white" transform="translate(29 29)"/>
</clipPath>
</defs>
</svg>
