<svg width="33" height="30" viewBox="0 0 33 30" fill="none" xmlns="http://www.w3.org/2000/svg">
<path fill-rule="evenodd" clip-rule="evenodd" d="M30.8381 29.9683C32.7646 30.5212 30.2864 23.6523 30.2864 23.6523C31.3899 20.3523 32.4828 9.08622 31.7971 5.6523C31.1114 2.2173 28.5399 2.33623 23.8149 1.39659C19.0053 0.432305 6.90889 -0.11948 4.2839 0.0219481C1.67497 0.158019 -0.242882 1.9398 0.0249743 5.51837C0.300331 9.08622 4.48532 22.3826 6.56068 25.6826C8.62853 28.9826 11.6853 28.4062 13.5089 28.1855C16.0096 27.8769 25.4232 25.6826 25.4232 25.6826C24.581 24.6005 28.9117 29.4155 30.8371 29.9683H30.8381ZM18.2124 9.20408L19.8882 5.64265H24.9024L19.421 16.0805V22.2305H13.6675V16.0805L10.6032 10.2455L8.17853 5.64265H13.1928L16.5399 12.7409L18.2124 9.20408Z" fill="#1168AC"/>
</svg>
