<svg width="70" height="70" viewBox="0 0 70 70" fill="none" xmlns="http://www.w3.org/2000/svg">
<path d="M24.5433 46.3375L19.5681 45.2463V44.2295C21.3214 42.8723 22.4535 40.749 22.4535 38.3653V33.5275C22.4535 29.4394 19.1274 26.1133 15.0392 26.1133C10.951 26.1133 7.62494 29.4394 7.62494 33.5275V38.3653C7.62494 40.7649 8.77174 42.9007 10.5448 44.2567V45.2453L5.53984 46.3396C2.32969 47.0414 0 49.9356 0 53.2213V68.6332C0 69.3882 0.612227 70.0004 1.36719 70.0004H28.7109C29.4659 70.0004 30.0781 69.3882 30.0781 68.6332V66.1039C30.0781 65.349 29.4659 64.7367 28.7109 64.7367C27.956 64.7367 27.3438 65.349 27.3438 66.1039V67.266H2.73438V53.2213C2.73438 51.211 4.1598 49.4402 6.12363 49.0109L12.2039 47.6815C12.8317 47.5442 13.2791 46.9885 13.2791 46.3457V45.5667C13.8436 45.7047 14.4327 45.7796 15.0391 45.7796C15.6579 45.7796 16.2587 45.7022 16.8338 45.5588V46.3459C16.8338 46.9881 17.2808 47.5438 17.908 47.6814L23.9574 49.0083C25.9196 49.4387 27.3438 51.2094 27.3438 53.2182V54.9158C27.3438 55.6708 27.956 56.283 28.7109 56.283C29.4659 56.283 30.0781 55.6708 30.0781 54.9158V53.2182C30.0781 49.9349 27.7505 47.0411 24.5433 46.3375ZM10.3592 38.3653V33.5275C10.3592 30.947 12.4585 28.8477 15.0391 28.8477C17.6196 28.8477 19.7189 30.947 19.7189 33.5275V38.3653C19.7189 40.9459 17.6196 43.0452 15.0391 43.0452C12.4585 43.0452 10.3592 40.9459 10.3592 38.3653Z" fill="#1168AC"/>
<path d="M62.3752 38.3649V36.3672H65.8984C68.16 36.3672 70 34.5272 70 32.2656V19.1406C70 16.879 68.16 15.0391 65.8984 15.0391H59.9804C59.2255 15.0391 58.6132 15.6513 58.6132 16.4062C58.6132 17.1612 59.2255 17.7734 59.9804 17.7734H65.8984C66.6523 17.7734 67.2656 18.3868 67.2656 19.1406V32.2656C67.2656 33.0195 66.6523 33.6328 65.8984 33.6328H62.3752V33.5273C62.3752 29.4391 59.0491 26.113 54.9609 26.113C50.8728 26.113 47.5467 29.4391 47.5467 33.5273V33.6328H42.9297C42.1747 33.6328 41.5625 34.245 41.5625 35V37.1679L38.4277 34.0331C38.1712 33.7769 37.8235 33.6328 37.4609 33.6328H35.2734C34.5196 33.6328 33.9062 33.0195 33.9062 32.2656V19.1406C33.9062 18.3868 34.5196 17.7734 35.2734 17.7734H48.9139C49.6688 17.7734 50.2811 17.1612 50.2811 16.4062C50.2811 15.6513 49.6688 15.0391 48.9139 15.0391H46.4388V4.10156C46.4388 1.83996 44.5989 0 42.3373 0H4.10156C1.83996 0 0 1.83996 0 4.10156V18.457C0 20.7186 1.83996 22.5586 4.10156 22.5586H21.8522V25.4752C21.8522 26.0282 22.1854 26.5267 22.6961 26.7382C22.8653 26.8084 23.0429 26.8424 23.2191 26.8424C23.5748 26.8424 23.9246 26.7035 24.1861 26.442L28.0696 22.5586H31.1719V32.2656C31.1719 34.5272 33.0118 36.3672 35.2734 36.3672H36.8945L41.9628 41.4355C42.2244 41.697 42.5741 41.8359 42.9298 41.8359C43.1059 41.8359 43.2836 41.8019 43.4528 41.7319C43.9636 41.5203 44.2967 41.0218 44.2967 40.4688V36.3672H47.5465V38.3649C47.5465 40.7645 48.6933 42.9003 50.4664 44.2563V45.2449L45.4614 46.3392C42.2516 47.041 39.9219 49.9352 39.9219 53.2209V68.6328C39.9219 69.3878 40.5341 70 41.2891 70H68.6328C69.3878 70 70 69.3878 70 68.6328V53.2178C70 49.9345 67.6724 47.0407 64.4652 46.3371L59.49 45.2458V44.2291C61.2433 42.8717 62.3752 40.7486 62.3752 38.3649ZM27.5033 19.8242C27.1407 19.8242 26.793 19.9683 26.5366 20.2247L24.5865 22.1747V21.1914C24.5865 20.4364 23.9743 19.8242 23.2194 19.8242H4.10156C3.3477 19.8242 2.73438 19.2109 2.73438 18.457V4.10156C2.73438 3.3477 3.3477 2.73438 4.10156 2.73438H42.3373C43.0912 2.73438 43.7045 3.3477 43.7045 4.10156V15.0391H35.2734C33.0118 15.0391 31.1719 16.879 31.1719 19.1406V19.8242H27.5033ZM53.201 45.5664C53.7655 45.7044 54.3546 45.7793 54.9609 45.7793C55.5797 45.7793 56.1806 45.7019 56.7556 45.5585V46.1028L54.9783 50.9465L53.201 46.1028V45.5664ZM54.9609 28.8472C57.5415 28.8472 59.6408 30.9466 59.6408 33.5271V34.5646H57.6244C54.9985 34.5646 52.5221 33.5974 50.5995 31.8332C51.2799 30.0878 52.9777 28.8472 54.9609 28.8472ZM50.2811 35.0589C52.4329 36.5155 54.9683 37.2989 57.6245 37.2989H59.641V38.3649C59.641 40.9455 57.5416 43.0448 54.9611 43.0448C52.3805 43.0448 50.2812 40.9455 50.2812 38.3649V35.0589H50.2811ZM63.8792 49.0079C65.8414 49.4383 67.2656 51.209 67.2656 53.2178V67.2656H42.6562V53.2209C42.6562 51.2106 44.0817 49.4398 46.0455 49.0105L50.9611 47.9358L53.6949 55.3863C53.8923 55.9247 54.4049 56.2826 54.9784 56.2826C55.552 56.2826 56.0644 55.9248 56.262 55.3863L58.9955 47.9365L63.8792 49.0079Z" fill="#1168AC"/>
<path d="M54.5121 17.7734C54.8717 17.7734 55.2231 17.6271 55.4773 17.3727C55.733 17.1186 55.8781 16.7658 55.8781 16.4062C55.8781 16.0467 55.733 15.6939 55.4773 15.4396C55.2232 15.1854 54.8717 15.0391 54.5121 15.0391C54.1512 15.0391 53.7984 15.1852 53.5441 15.4396C53.2898 15.6941 53.1436 16.0467 53.1436 16.4062C53.1436 16.7658 53.2897 17.1186 53.5441 17.3727C53.7984 17.6271 54.1512 17.7734 54.5121 17.7734Z" fill="#1168AC"/>
<path d="M28.7109 59.2676C28.3514 59.2676 27.9986 59.4137 27.7443 59.6682C27.49 59.9226 27.3438 60.2752 27.3438 60.6348C27.3438 60.9943 27.4899 61.3471 27.7443 61.6012C27.9986 61.8555 28.3514 62.002 28.7109 62.002C29.0705 62.002 29.4232 61.8557 29.6774 61.6012C29.9317 61.3471 30.0781 60.9943 30.0781 60.6348C30.0781 60.2752 29.9318 59.9225 29.6774 59.6682C29.4232 59.4137 29.0705 59.2676 28.7109 59.2676Z" fill="#1168AC"/>
<path d="M28.0957 13.2168H7.58789C6.83293 13.2168 6.2207 13.829 6.2207 14.584C6.2207 15.3389 6.83293 15.9512 7.58789 15.9512H28.0957C28.8507 15.9512 29.4629 15.3389 29.4629 14.584C29.4629 13.829 28.8507 13.2168 28.0957 13.2168Z" fill="#1168AC"/>
<path d="M7.58789 9.3418H33.1885C33.9434 9.3418 34.5557 8.72957 34.5557 7.97461C34.5557 7.21965 33.9434 6.60742 33.1885 6.60742H7.58789C6.83293 6.60742 6.2207 7.21965 6.2207 7.97461C6.2207 8.72957 6.83293 9.3418 7.58789 9.3418Z" fill="#1168AC"/>
<path d="M38.6562 9.3418C39.0158 9.3418 39.3686 9.19674 39.6227 8.94107C39.877 8.68691 40.0234 8.33418 40.0234 7.97461C40.0234 7.61504 39.8771 7.26367 39.6227 7.00801C39.3686 6.75371 39.0158 6.60742 38.6562 6.60742C38.2967 6.60742 37.9439 6.75357 37.6896 7.00801C37.4354 7.26367 37.2891 7.61504 37.2891 7.97461C37.2891 8.33418 37.4352 8.68691 37.6896 8.94107C37.9439 9.19688 38.2967 9.3418 38.6562 9.3418Z" fill="#1168AC"/>
</svg>
