<svg width="100" height="100" viewBox="0 0 100 100" fill="none" xmlns="http://www.w3.org/2000/svg">
<circle cx="50" cy="50" r="50" fill="#1168AC"/>
<path d="M76.6694 57.4C76.4732 56.9297 76.0154 56.6229 75.5074 56.6229H68.8009V32.2576C68.8009 31.5634 68.2374 31 67.5433 31H33.2746C32.5804 31 32.017 31.5634 32.017 32.2576V56.623H25.2576C24.7496 56.623 24.2918 56.9299 24.0956 57.3977C23.9019 57.868 24.0075 58.4088 24.3672 58.7685L49.4557 76.6303C49.692 76.8667 50.0115 77 50.346 77C50.6805 77 51 76.8667 51.2364 76.6328L76.3978 58.7709C76.7575 58.4111 76.8656 57.8704 76.6694 57.4Z" fill="white"/>
<path d="M52.7448 52.4687C56.1937 52.4687 58.9792 49.6774 58.9792 46.2344C58.9792 42.7967 56.1825 40 52.7448 40H46.4688C46.1452 40 45.8828 40.2623 45.8828 40.5859V48.7864H44.5859C44.2623 48.7864 44 49.0488 44 49.3724V51.8828C44 52.2064 44.2623 52.4687 44.5859 52.4687H45.8828V53.8073H44.5859C44.2623 53.8073 44 54.0696 44 54.3932V56.9037C44 57.2273 44.2623 57.4896 44.5859 57.4896H45.8828V59.4141C45.8828 59.7377 46.1452 60 46.4688 60H48.9792C49.3028 60 49.5651 59.7377 49.5651 59.4141V57.4896H53.3724C53.696 57.4896 53.9583 57.2272 53.9583 56.9036V54.3932C53.9583 54.0696 53.696 53.8073 53.3724 53.8073H49.5651V52.4687H52.7448ZM49.5651 43.6823H52.7448C54.152 43.6823 55.2968 44.8272 55.2968 46.2344C55.2968 47.6416 54.152 48.7864 52.7448 48.7864H49.5651V43.6823Z" fill="#1168AC"/>
</svg>
