<svg width="30" height="30" viewBox="0 0 30 30" fill="none" xmlns="http://www.w3.org/2000/svg">
<g clip-path="url(#clip0_500_25)">
<path d="M17.6518 13.0752C17.057 12.2425 16.0816 11.6953 14.9872 11.6953C13.8928 11.6953 12.9174 12.2425 12.3227 13.0752C11.942 13.6224 11.7041 14.2885 11.7041 15.0022C11.7041 16.8103 13.1791 18.2853 14.9872 18.2853C16.7953 18.2853 18.2703 16.8103 18.2703 15.0022C18.2703 14.2885 18.0324 13.6224 17.6518 13.0752Z" fill="#1168AC"/>
<path d="M19.7223 13.0977C19.9602 13.5735 20.103 14.3348 20.103 15.0009C20.103 17.8082 17.8191 20.1159 14.988 20.1159C12.1569 20.1159 9.87302 17.832 9.87302 15.0009C9.87302 14.311 10.0158 13.5735 10.2537 13.0977H7.375V20.7344C7.375 21.7336 8.25525 22.6139 9.25446 22.6139H20.7215C21.7208 22.6139 22.601 21.7336 22.601 20.7344V13.0977H19.7223Z" fill="#1168AC"/>
<path d="M21.7451 7.81676H18.9854V10.9809H22.1257V8.2212V7.79297L21.7451 7.81676Z" fill="#1168AC"/>
<path d="M22.4584 0.0117188H7.51784C9.53674e-07 0.0117187 0 0.0117188 1.12349e-06 7.52956V22.4939C1.12349e-06 29.9879 9.53674e-07 29.9879 7.51784 29.9879H22.4822C30 29.9879 30 29.9879 30 22.4701V7.52956C30 0.0117188 30 0.0117188 22.4584 0.0117188ZM24.2665 13.0728V20.7334C24.2665 22.7318 22.7201 24.2782 20.7217 24.2782H9.25456C7.25615 24.2782 5.70975 22.7318 5.70975 20.7334V13.0728V9.26628C5.70975 7.26787 7.25615 5.72147 9.25456 5.72147H20.7217C22.7201 5.72147 24.2665 7.26787 24.2665 9.26628V13.0728Z" fill="#1168AC"/>
</g>
<defs>
<clipPath id="clip0_500_25">
<rect width="30" height="30" fill="white"/>
</clipPath>
</defs>
</svg>
