<svg width="60" height="60" viewBox="0 0 60 60" fill="none" xmlns="http://www.w3.org/2000/svg">
<circle cx="30" cy="30" r="30" fill="#1168AC"/>
<g clip-path="url(#clip0_500_143)">
<path d="M42.9887 22.4706C41.6474 20.1725 39.8279 18.353 37.5298 17.0117C35.2313 15.6705 32.7221 15 30.0004 15C27.279 15 24.7691 15.6705 22.471 17.0117C20.1728 18.3528 18.3533 20.1723 17.0119 22.4706C15.6705 24.7689 15 27.2788 15 30C15 32.7214 15.6707 35.2309 17.0117 37.5294C18.353 39.8274 20.1725 41.6469 22.4708 42.9883C24.7691 44.3295 27.2788 45.0001 30.0002 45.0001C32.7215 45.0001 35.2315 44.3295 37.5297 42.9883C39.8278 41.6474 41.6472 39.8274 42.9885 37.5294C44.3295 35.2311 44.9999 32.7212 44.9999 30C45 27.2786 44.3295 24.7686 42.9887 22.4706ZM39.1995 35.332C38.249 36.9595 36.96 38.249 35.3324 39.1995C33.7049 40.1499 31.9276 40.6247 30.0002 40.6247C28.0733 40.6247 26.2959 40.1499 24.6682 39.1995C23.0406 38.2489 21.7516 36.9595 20.8012 35.332C19.8505 33.7044 19.3753 31.9271 19.3753 30C19.3753 28.0729 19.8507 26.2955 20.8012 24.668C21.7514 23.0404 23.0408 21.7512 24.6682 20.8007C26.2957 19.8502 28.0731 19.3751 30.0002 19.3751C31.9276 19.3751 33.7049 19.8502 35.3324 20.8007C36.96 21.7512 38.249 23.0404 39.1995 24.668C40.15 26.2955 40.625 28.0729 40.625 30C40.625 31.9271 40.15 33.7044 39.1995 35.332Z" fill="white"/>
<path d="M31.875 22.5H30.6249C30.4423 22.5 30.2929 22.5588 30.1754 22.6758C30.0587 22.793 29.9999 22.9426 29.9999 23.1249V30.0001H25.6249C25.4425 30.0001 25.2929 30.0586 25.1757 30.1755C25.0586 30.2926 25 30.4424 25 30.625V31.8749C25 32.0573 25.0586 32.2071 25.1757 32.3242C25.293 32.4412 25.4428 32.4997 25.6249 32.4997H31.8753C32.0574 32.4997 32.2073 32.4412 32.3242 32.3242C32.4412 32.2071 32.5002 32.0573 32.5002 31.8749V23.1249C32.5002 22.9427 32.4412 22.7932 32.3242 22.6758C32.2072 22.5588 32.0574 22.5 31.875 22.5Z" fill="white"/>
</g>
<defs>
<clipPath id="clip0_500_143">
<rect width="30" height="30" fill="white" transform="translate(15 15)"/>
</clipPath>
</defs>
</svg>
