<svg width="70" height="70" viewBox="0 0 70 70" fill="none" xmlns="http://www.w3.org/2000/svg">
<g clip-path="url(#clip0_500_523)">
<path d="M64.3103 41.9409L49.4615 27.0916C48.9984 26.6535 48.2743 26.6535 47.8118 27.0916L41.2117 33.6911C40.7565 34.1468 40.7565 34.8851 41.2117 35.3408L42.0365 36.1657L39.808 38.3942L38.021 38.7497L34.6121 35.3408C34.3934 35.1221 34.0966 34.999 33.7873 34.999H29.3211L27.1872 32.8662C27.6429 32.4111 27.6429 31.6722 27.1872 31.2165L20.5888 24.6158C20.3695 24.3965 20.0727 24.2734 19.7633 24.2734C19.4535 24.2734 19.1567 24.3965 18.9379 24.6158L5.73828 37.8154C5.28255 38.2712 5.28255 39.0094 5.73828 39.4652L12.3378 46.0647C12.7935 46.5204 13.5318 46.5204 13.9875 46.0647L21.5629 53.6401C21.0536 54.6917 21.1077 55.9284 21.7059 56.9316C22.3035 57.9347 23.3659 58.5705 24.5331 58.6229C24.6077 60.415 26.045 61.8494 27.8372 61.9212C27.9135 63.7083 29.3451 65.1392 31.1315 65.2156C31.205 66.5907 32.0794 67.7939 33.3646 68.2889C34.6492 68.7834 36.1052 68.4775 37.0816 67.5068L38.3218 68.7469C39.2953 69.733 40.7599 70.0492 42.0536 69.553C43.3468 69.0562 44.2235 67.8411 44.2873 66.4569C46.0771 66.3834 47.511 64.949 47.5839 63.1591C49.3749 63.0833 50.8099 61.6489 50.8857 59.8585C52.2648 59.7924 53.4748 58.9185 53.9709 57.6305C54.4671 56.342 54.1561 54.8825 53.178 53.9084L51.9441 52.6739L55.2407 49.3699L56.0656 50.1959C56.5213 50.6516 57.2596 50.6516 57.7153 50.1959L64.3154 43.5964C64.7706 43.1406 64.7706 42.4023 64.3154 41.9466L64.3103 41.9409ZM42.4495 46.4777C42.9053 46.9334 42.9053 47.6717 42.4495 48.1274C41.9887 48.5701 41.2607 48.5701 40.7998 48.1274L35.85 43.1788C35.3943 42.7231 34.6554 42.7231 34.2003 43.1788C32.8331 44.5466 30.616 44.5466 29.2488 43.1788L27.6036 44.828C28.0274 45.2438 28.5122 45.5924 29.0409 45.8619L23.0668 51.8399L18.9379 47.7156L29.3211 37.3324H33.3042L42.4495 46.4777ZM13.1661 43.5901L8.21232 38.6403L19.7628 27.0904L24.7126 32.0402L13.1661 43.5901ZM25.5409 34.516L27.1883 36.1657L17.287 46.0647L15.6373 44.415L25.5409 34.516ZM34.6036 66.196C34.2977 66.1971 34.0037 66.0769 33.7873 65.861C33.3389 65.411 33.3333 64.6847 33.7742 64.2278L33.7873 64.2147L36.1844 61.817L37.0839 60.9198L35.437 59.2655L34.5347 60.1678L32.1278 62.5649L32.1176 62.578C31.6528 62.9922 30.9452 62.9688 30.5089 62.5245C30.0725 62.0807 30.0617 61.3726 30.4844 60.9152L33.7873 57.6146L32.1375 55.9654L28.8381 59.2655C28.3823 59.7218 27.6435 59.7218 27.1877 59.266C26.732 58.8109 26.7314 58.072 27.1872 57.6163L30.4878 54.3168L28.8381 52.6671L25.5363 55.9666C25.0754 56.4075 24.3491 56.4075 23.8877 55.9666C23.4325 55.5108 23.4325 54.7725 23.8877 54.3168L31.6869 46.5142C32.8433 46.5313 33.9787 46.2026 34.9465 45.5702L39.1535 49.7772C40.5389 51.0994 42.7184 51.0994 44.1038 49.7772C45.4705 48.4106 45.4705 46.1952 44.1038 44.828L40.0091 40.7332L50.2943 51.0173L49.944 51.3671C48.9277 51.0857 47.8385 51.2834 46.9858 51.9032C46.1324 52.5235 45.6089 53.4988 45.5633 54.5521C43.7615 54.6284 42.3225 56.0805 42.2627 57.8835C40.4722 57.9279 39.027 59.36 38.9661 61.1499C37.9139 61.1949 36.9398 61.7167 36.3188 62.5672C35.6985 63.4177 35.4991 64.5046 35.7777 65.5203L35.4273 65.8701C35.2069 66.0837 34.9106 66.2011 34.6036 66.196ZM41.6247 67.1023C41.1638 67.5438 40.4364 67.5438 39.9749 67.1023L38.3241 65.4491C37.9162 64.9871 37.9378 64.2876 38.373 63.8518C38.8088 63.416 39.5084 63.3938 39.9704 63.8017L41.6247 65.4491C41.8446 65.6668 41.9676 65.9635 41.9665 66.2729C41.9676 66.5839 41.8446 66.8824 41.6247 67.1023ZM44.9242 63.8017C44.4684 64.2574 43.7301 64.2574 43.2744 63.8017L41.6247 62.1519C41.4059 61.9332 41.2823 61.6364 41.2823 61.3265C41.2823 61.0172 41.4059 60.7198 41.6247 60.5011C41.8423 60.2812 42.1391 60.1581 42.4484 60.1593C42.7577 60.1593 43.0545 60.2823 43.2733 60.5011L44.923 62.1508C45.1423 62.3695 45.2654 62.6663 45.2654 62.9762C45.2659 63.2856 45.1429 63.5829 44.9242 63.8017ZM48.2225 60.5011C47.7611 60.942 47.0347 60.942 46.5739 60.5011L44.9242 58.8513C44.4821 58.3939 44.4884 57.6659 44.9384 57.2158C45.3884 56.7658 46.1159 56.7595 46.5739 57.2016L48.2236 58.8513C48.4424 59.0701 48.5654 59.3669 48.5654 59.6762C48.5666 59.9861 48.443 60.2835 48.2225 60.5011ZM51.5237 57.2016C51.3049 57.4209 51.0081 57.5439 50.6982 57.5439C50.3889 57.5439 50.0921 57.4209 49.8728 57.2016L48.2236 55.5524C47.7668 55.0961 47.7662 54.3567 48.2225 53.9004C48.6782 53.4435 49.4176 53.443 49.8745 53.8993L51.5203 55.5524C51.976 56.0076 51.976 56.7464 51.5203 57.2016H51.5237ZM51.9367 49.3642L42.0377 39.4652L43.6863 37.8154L53.5864 47.7156L51.9367 49.3642ZM56.887 47.7156L43.6863 34.516L48.6366 29.5656L61.8363 42.7658L56.887 47.7156Z" fill="#1168AC"/>
<path d="M12.7865 66.5006V49.0006C12.7865 48.3563 12.2641 47.834 11.6198 47.834C10.9755 47.834 10.4531 48.3563 10.4531 49.0007V66.5006C10.4531 68.4335 12.0197 70.0006 13.9531 70.0006H27.9531C28.5975 70.0006 29.1198 69.4783 29.1198 68.834C29.1198 68.1896 28.5975 67.6673 27.9531 67.6673H13.9531C13.3088 67.6673 12.7865 67.1449 12.7865 66.5006Z" fill="#1168AC"/>
<path d="M57.1191 66.5C57.1191 67.1443 56.5968 67.6667 55.9525 67.6667H47.7858C47.1415 67.6667 46.6191 68.189 46.6191 68.8333C46.6191 69.4777 47.1415 70 47.7858 70H55.9525C57.8853 70 59.4525 68.4329 59.4525 66.5V53.6667C59.4525 53.0223 58.9301 52.5 58.2858 52.5C57.6415 52.5 57.1191 53.0223 57.1191 53.6667V66.5Z" fill="#1168AC"/>
<path d="M12.7865 3.5C12.7865 2.85571 13.3088 2.33333 13.9531 2.33333H46.6198V10.5C46.6198 12.4329 48.1864 14 50.1198 14H57.1198V31.5C57.1198 32.1443 57.6421 32.6667 58.2865 32.6667C58.9308 32.6667 59.4531 32.1443 59.4531 31.5V12.8681C59.4531 12.5804 59.3466 12.303 59.1541 12.0888L48.6541 0.38737C48.433 0.140706 48.1174 0 47.7865 0H13.9531C12.0197 0 10.4531 1.56714 10.4531 3.5V26.8333C10.4531 27.4777 10.9755 28 11.6198 28C12.2641 28 12.7865 27.4777 12.7865 26.8333V3.5ZM48.9531 10.5V4.21777L55.6404 11.6667H50.1198C49.4755 11.6667 48.9531 11.1443 48.9531 10.5Z" fill="#1168AC"/>
<path d="M17.4531 8.16667C17.4531 7.52233 17.9755 7 18.6198 7C19.2641 7 19.7865 7.52233 19.7865 8.16667C19.7865 8.811 19.2641 9.33333 18.6198 9.33333C17.9755 9.33333 17.4531 8.811 17.4531 8.16667Z" fill="#1168AC"/>
<path d="M22.1191 8.16667C22.1191 7.52233 22.6415 7 23.2858 7H30.2858C30.9301 7 31.4525 7.52233 31.4525 8.16667C31.4525 8.811 30.9301 9.33333 30.2858 9.33333H23.2858C22.6415 9.33333 22.1191 8.811 22.1191 8.16667Z" fill="#1168AC"/>
<path d="M17.4531 12.8327C17.4531 12.1884 17.9755 11.666 18.6198 11.666H30.2865C30.9308 11.666 31.4531 12.1884 31.4531 12.8327C31.4531 13.477 30.9308 13.9993 30.2865 13.9993H18.6198C17.9755 13.9993 17.4531 13.477 17.4531 12.8327Z" fill="#1168AC"/>
<path d="M17.4531 19.8327C17.4531 19.1883 17.9755 18.666 18.6198 18.666H20.9531C21.5975 18.666 22.1198 19.1883 22.1198 19.8327C22.1198 20.477 21.5975 20.9993 20.9531 20.9993H18.6198C17.9755 20.9993 17.4531 20.477 17.4531 19.8327Z" fill="#1168AC"/>
<path d="M24.4531 19.8327C24.4531 19.1883 24.9755 18.666 25.6198 18.666H51.2865C51.9308 18.666 52.4531 19.1883 52.4531 19.8327C52.4531 20.477 51.9308 20.9993 51.2865 20.9993H25.6198C24.9755 20.9993 24.4531 20.477 24.4531 19.8327Z" fill="#1168AC"/>
<path d="M26.7871 26.8327C26.7871 26.1883 27.3094 25.666 27.9538 25.666H43.1204C43.7648 25.666 44.2871 26.1883 44.2871 26.8327C44.2871 27.477 43.7648 27.9993 43.1204 27.9993H27.9538C27.3094 27.9993 26.7871 27.477 26.7871 26.8327Z" fill="#1168AC"/>
</g>
<defs>
<clipPath id="clip0_500_523">
<rect width="70" height="70" fill="white"/>
</clipPath>
</defs>
</svg>
