<svg width="60" height="60" viewBox="0 0 60 60" fill="none" xmlns="http://www.w3.org/2000/svg">
<circle cx="30" cy="30" r="30" fill="#1168AC"/>
<g clip-path="url(#clip0_500_131)">
<path d="M33.9892 24.2188H24.3789V25.8531H33.9892V24.2188Z" fill="white"/>
<path d="M33.9892 27.0273H24.3789V28.6617H33.9892V27.0273Z" fill="white"/>
<path d="M33.9892 29.8438H24.3789V31.4781H33.9892V29.8438Z" fill="white"/>
<path d="M29.1779 32.6602H24.3789V34.2945H29.1779V32.6602Z" fill="white"/>
<path d="M30.2241 38.2912H23.1847C22.8542 38.2912 22.5787 38.0218 22.5787 37.6852V23.0494C22.5787 22.7188 22.848 22.4434 23.1847 22.4434H35.1761C35.5067 22.4434 35.7821 22.7127 35.7821 23.0494V32.4577C36.3269 32.3291 36.9023 32.2557 37.4838 32.2557C38.0776 32.2557 38.6469 32.3291 39.1978 32.4577V20.05C39.1978 18.7768 38.1633 17.7423 36.8901 17.7423H32.9052C32.3971 16.1508 30.9097 15 29.1529 15C27.3961 15 25.9086 16.1508 25.4006 17.7423H21.4708C20.1976 17.7423 19.1631 18.7768 19.1631 20.05V39.6317C19.1631 40.9049 20.1976 41.9394 21.4708 41.9394H30.4628C30.2241 41.2171 30.0955 40.452 30.0955 39.6501C30.0955 39.1849 30.1445 38.7319 30.2241 38.2912ZM29.1529 17.5709C29.9119 17.5709 30.5302 18.1891 30.5302 18.9482C30.5302 19.7072 29.9119 20.3254 29.1529 20.3254C28.3939 20.3254 27.7756 19.7072 27.7756 18.9482C27.7756 18.183 28.3939 17.5709 29.1529 17.5709Z" fill="white"/>
<path d="M37.483 34.2891C34.5265 34.2891 32.127 36.6886 32.127 39.6451C32.127 42.6017 34.5265 45.0012 37.483 45.0012C40.4395 45.0012 42.8391 42.6017 42.8391 39.6451C42.8391 36.6886 40.4395 34.2891 37.483 34.2891ZM39.0255 41.763C38.7929 42.0446 38.4869 42.2405 38.1318 42.3384C37.9788 42.3813 37.9054 42.4609 37.9176 42.62C37.9237 42.7792 37.9176 42.9383 37.9176 43.0975C37.9176 43.2383 37.8442 43.3117 37.7034 43.3178C37.532 43.324 37.3606 43.324 37.1953 43.3178C37.0484 43.3178 36.9749 43.2321 36.9749 43.0852C36.9749 42.9689 36.9749 42.8526 36.9688 42.7363C36.9688 42.4792 36.9566 42.4731 36.7117 42.4303C36.3995 42.3813 36.0874 42.3078 35.7997 42.167C35.5732 42.0569 35.5487 42.0018 35.616 41.763C35.665 41.5855 35.714 41.408 35.7691 41.2366C35.8303 41.0346 35.8854 41.0101 36.0751 41.1081C36.3934 41.2734 36.7301 41.3652 37.0851 41.408C37.3116 41.4386 37.5381 41.4141 37.7462 41.3223C38.138 41.1509 38.1992 40.6918 37.8686 40.4225C37.7523 40.3307 37.6299 40.2634 37.4891 40.2021C37.1463 40.0491 36.7852 39.9328 36.4546 39.7369C35.9282 39.4186 35.5916 38.984 35.6283 38.3413C35.6711 37.6129 36.0812 37.1599 36.7485 36.9151C37.0239 36.8171 37.0239 36.8171 37.0239 36.5294C37.0239 36.4315 37.0239 36.3335 37.0239 36.2356C37.03 36.0214 37.0668 35.9785 37.281 35.9724C37.3483 35.9724 37.4157 35.9724 37.483 35.9724C37.9421 35.9724 37.9421 35.9724 37.9482 36.4315C37.9482 36.7559 37.9482 36.7559 38.2726 36.811C38.5236 36.8477 38.7562 36.9212 38.9888 37.0252C39.1174 37.0803 39.1602 37.1721 39.1235 37.3007C39.0684 37.4966 39.0133 37.6986 38.946 37.8944C38.8848 38.0781 38.8235 38.1087 38.646 38.023C38.2849 37.8516 37.9115 37.7781 37.5136 37.7965C37.4095 37.8026 37.3055 37.8149 37.2137 37.8577C36.8709 38.0108 36.8158 38.3841 37.1096 38.6167C37.2565 38.7331 37.4279 38.8187 37.5993 38.8922C37.9054 39.0207 38.2114 39.1371 38.4991 39.2962C39.4234 39.8226 39.6683 40.9734 39.0255 41.763Z" fill="white"/>
</g>
<defs>
<clipPath id="clip0_500_131">
<rect width="30" height="30" fill="white" transform="translate(16 15)"/>
</clipPath>
</defs>
</svg>
