<svg width="30" height="30" viewBox="0 0 30 30" fill="none" xmlns="http://www.w3.org/2000/svg">
<g clip-path="url(#clip0_500_22)">
<path d="M28.0884 0H1.91588C0.857385 0 0 0.857385 0 1.91377V28.0862C0 29.1426 0.857385 30 1.91588 30H28.0862C29.1426 30 30 29.1426 30 28.0862V1.91377C30.0021 0.855268 29.1447 0 28.0884 0ZM24.8853 18.2803C25.4336 18.8392 26.6234 19.777 26.4075 20.7318C26.2085 21.6082 24.9001 21.2885 23.6299 21.3394C22.1798 21.4007 21.3203 21.4325 20.4481 20.7318C20.0374 20.3994 19.7961 20.0056 19.4023 19.5653C19.0445 19.1673 18.5936 18.4539 17.9797 18.4814C16.8767 18.5364 17.2218 20.0734 16.8301 21.1213C10.6993 22.0867 8.23725 18.2993 6.0652 14.6242C5.01306 12.8438 3.49305 9.02054 3.49305 9.02054L7.82866 9.00572C7.82866 9.00572 9.21953 11.5355 9.58789 12.1876C9.90121 12.7422 10.2463 13.1826 10.6019 13.6779C10.9004 14.0886 11.3725 14.8931 11.8891 14.8275C12.7295 14.7195 12.8819 11.4593 12.3612 10.3669C12.1537 9.92449 11.6562 9.76995 11.1418 9.61965C11.3154 8.52304 16.0045 8.2944 16.7624 9.14544C17.8632 10.3818 16.0003 13.824 17.5076 14.8275C19.6246 13.7182 21.4325 9.07346 21.4325 9.07346L26.5091 9.10522C26.5091 9.10522 25.7152 11.616 24.8832 12.7295C24.3984 13.3816 22.7895 14.8338 22.853 15.9114C22.9038 16.7645 24.2121 17.5944 24.8853 18.2803Z" fill="#1168AC"/>
</g>
<defs>
<clipPath id="clip0_500_22">
<rect width="30" height="30" fill="white"/>
</clipPath>
</defs>
</svg>
